<svg xmlns="http://www.w3.org/2000/svg" viewBox="0 0 416 170" width="100%" style="font-family:ui-monospace,SFMono-Regular,SF Mono,Menlo,Consolas,Liberation Mono,monospace">
  <style>
    .title { font-size:13px; font-weight:600; fill:#e6edf3; }
    .lbl { font-size:10px; fill:#8b949e; dominant-baseline:middle; }
    .cell { transition:opacity 0.15s; cursor:default; }
    .cell:hover { opacity:0.8; outline:1px solid #58a6ff; }
  </style>
  <rect width="416" height="170" fill="#0d1117"/>
  <text x="4" y="20" class="title">24-Hour Commit Activity · 0 total · last 7 days</text>
  <text x="0" y="41" class="lbl">Sun</text><text x="0" y="57" class="lbl">Mon</text><text x="0" y="73" class="lbl">Tue</text><text x="0" y="89" class="lbl">Wed</text><text x="0" y="105" class="lbl">Thu</text><text x="0" y="121" class="lbl">Fri</text><text x="0" y="137" class="lbl">Sat</text>
  <text x="32" y="25" class="lbl">12am</text>
  <text x="128" y="25" class="lbl">6am</text>
  <text x="224" y="25" class="lbl">12pm</text>
  <text x="320" y="25" class="lbl">6pm</text>
  <rect x="32" y="30" width="14" height="14" rx="2" fill="#161b22" class="cell" data-count="0" data-hour="0" data-day="0"/><rect x="48" y="30" width="14" height="14" rx="2" fill="#161b22" class="cell" data-count="0" data-hour="1" data-day="0"/><rect x="64" y="30" width="14" height="14" rx="2" fill="#161b22" class="cell" data-count="0" data-hour="2" data-day="0"/><rect x="80" y="30" width="14" height="14" rx="2" fill="#161b22" class="cell" data-count="0" data-hour="3" data-day="0"/><rect x="96" y="30" width="14" height="14" rx="2" fill="#161b22" class="cell" data-count="0" data-hour="4" data-day="0"/><rect x="112" y="30" width="14" height="14" rx="2" fill="#161b22" class="cell" data-count="0" data-hour="5" data-day="0"/><rect x="128" y="30" width="14" height="14" rx="2" fill="#161b22" class="cell" data-count="0" data-hour="6" data-day="0"/><rect x="144" y="30" width="14" height="14" rx="2" fill="#161b22" class="cell" data-count="0" data-hour="7" data-day="0"/><rect x="160" y="30" width="14" height="14" rx="2" fill="#161b22" class="cell" data-count="0" data-hour="8" data-day="0"/><rect x="176" y="30" width="14" height="14" rx="2" fill="#161b22" class="cell" data-count="0" data-hour="9" data-day="0"/><rect x="192" y="30" width="14" height="14" rx="2" fill="#161b22" class="cell" data-count="0" data-hour="10" data-day="0"/><rect x="208" y="30" width="14" height="14" rx="2" fill="#161b22" class="cell" data-count="0" data-hour="11" data-day="0"/><rect x="224" y="30" width="14" height="14" rx="2" fill="#161b22" class="cell" data-count="0" data-hour="12" data-day="0"/><rect x="240" y="30" width="14" height="14" rx="2" fill="#161b22" class="cell" data-count="0" data-hour="13" data-day="0"/><rect x="256" y="30" width="14" height="14" rx="2" fill="#161b22" class="cell" data-count="0" data-hour="14" data-day="0"/><rect x="272" y="30" width="14" height="14" rx="2" fill="#161b22" class="cell" data-count="0" data-hour="15" data-day="0"/><rect x="288" y="30" width="14" height="14" rx="2" fill="#161b22" class="cell" data-count="0" data-hour="16" data-day="0"/><rect x="304" y="30" width="14" height="14" rx="2" fill="#161b22" class="cell" data-count="0" data-hour="17" data-day="0"/><rect x="320" y="30" width="14" height="14" rx="2" fill="#161b22" class="cell" data-count="0" data-hour="18" data-day="0"/><rect x="336" y="30" width="14" height="14" rx="2" fill="#161b22" class="cell" data-count="0" data-hour="19" data-day="0"/><rect x="352" y="30" width="14" height="14" rx="2" fill="#161b22" class="cell" data-count="0" data-hour="20" data-day="0"/><rect x="368" y="30" width="14" height="14" rx="2" fill="#161b22" class="cell" data-count="0" data-hour="21" data-day="0"/><rect x="384" y="30" width="14" height="14" rx="2" fill="#161b22" class="cell" data-count="0" data-hour="22" data-day="0"/><rect x="400" y="30" width="14" height="14" rx="2" fill="#161b22" class="cell" data-count="0" data-hour="23" data-day="0"/><rect x="32" y="46" width="14" height="14" rx="2" fill="#161b22" class="cell" data-count="0" data-hour="0" data-day="1"/><rect x="48" y="46" width="14" height="14" rx="2" fill="#161b22" class="cell" data-count="0" data-hour="1" data-day="1"/><rect x="64" y="46" width="14" height="14" rx="2" fill="#161b22" class="cell" data-count="0" data-hour="2" data-day="1"/><rect x="80" y="46" width="14" height="14" rx="2" fill="#161b22" class="cell" data-count="0" data-hour="3" data-day="1"/><rect x="96" y="46" width="14" height="14" rx="2" fill="#161b22" class="cell" data-count="0" data-hour="4" data-day="1"/><rect x="112" y="46" width="14" height="14" rx="2" fill="#161b22" class="cell" data-count="0" data-hour="5" data-day="1"/><rect x="128" y="46" width="14" height="14" rx="2" fill="#161b22" class="cell" data-count="0" data-hour="6" data-day="1"/><rect x="144" y="46" width="14" height="14" rx="2" fill="#161b22" class="cell" data-count="0" data-hour="7" data-day="1"/><rect x="160" y="46" width="14" height="14" rx="2" fill="#161b22" class="cell" data-count="0" data-hour="8" data-day="1"/><rect x="176" y="46" width="14" height="14" rx="2" fill="#161b22" class="cell" data-count="0" data-hour="9" data-day="1"/><rect x="192" y="46" width="14" height="14" rx="2" fill="#161b22" class="cell" data-count="0" data-hour="10" data-day="1"/><rect x="208" y="46" width="14" height="14" rx="2" fill="#161b22" class="cell" data-count="0" data-hour="11" data-day="1"/><rect x="224" y="46" width="14" height="14" rx="2" fill="#161b22" class="cell" data-count="0" data-hour="12" data-day="1"/><rect x="240" y="46" width="14" height="14" rx="2" fill="#161b22" class="cell" data-count="0" data-hour="13" data-day="1"/><rect x="256" y="46" width="14" height="14" rx="2" fill="#161b22" class="cell" data-count="0" data-hour="14" data-day="1"/><rect x="272" y="46" width="14" height="14" rx="2" fill="#161b22" class="cell" data-count="0" data-hour="15" data-day="1"/><rect x="288" y="46" width="14" height="14" rx="2" fill="#161b22" class="cell" data-count="0" data-hour="16" data-day="1"/><rect x="304" y="46" width="14" height="14" rx="2" fill="#161b22" class="cell" data-count="0" data-hour="17" data-day="1"/><rect x="320" y="46" width="14" height="14" rx="2" fill="#161b22" class="cell" data-count="0" data-hour="18" data-day="1"/><rect x="336" y="46" width="14" height="14" rx="2" fill="#161b22" class="cell" data-count="0" data-hour="19" data-day="1"/><rect x="352" y="46" width="14" height="14" rx="2" fill="#161b22" class="cell" data-count="0" data-hour="20" data-day="1"/><rect x="368" y="46" width="14" height="14" rx="2" fill="#161b22" class="cell" data-count="0" data-hour="21" data-day="1"/><rect x="384" y="46" width="14" height="14" rx="2" fill="#161b22" class="cell" data-count="0" data-hour="22" data-day="1"/><rect x="400" y="46" width="14" height="14" rx="2" fill="#161b22" class="cell" data-count="0" data-hour="23" data-day="1"/><rect x="32" y="62" width="14" height="14" rx="2" fill="#161b22" class="cell" data-count="0" data-hour="0" data-day="2"/><rect x="48" y="62" width="14" height="14" rx="2" fill="#161b22" class="cell" data-count="0" data-hour="1" data-day="2"/><rect x="64" y="62" width="14" height="14" rx="2" fill="#161b22" class="cell" data-count="0" data-hour="2" data-day="2"/><rect x="80" y="62" width="14" height="14" rx="2" fill="#161b22" class="cell" data-count="0" data-hour="3" data-day="2"/><rect x="96" y="62" width="14" height="14" rx="2" fill="#161b22" class="cell" data-count="0" data-hour="4" data-day="2"/><rect x="112" y="62" width="14" height="14" rx="2" fill="#161b22" class="cell" data-count="0" data-hour="5" data-day="2"/><rect x="128" y="62" width="14" height="14" rx="2" fill="#161b22" class="cell" data-count="0" data-hour="6" data-day="2"/><rect x="144" y="62" width="14" height="14" rx="2" fill="#161b22" class="cell" data-count="0" data-hour="7" data-day="2"/><rect x="160" y="62" width="14" height="14" rx="2" fill="#161b22" class="cell" data-count="0" data-hour="8" data-day="2"/><rect x="176" y="62" width="14" height="14" rx="2" fill="#161b22" class="cell" data-count="0" data-hour="9" data-day="2"/><rect x="192" y="62" width="14" height="14" rx="2" fill="#161b22" class="cell" data-count="0" data-hour="10" data-day="2"/><rect x="208" y="62" width="14" height="14" rx="2" fill="#161b22" class="cell" data-count="0" data-hour="11" data-day="2"/><rect x="224" y="62" width="14" height="14" rx="2" fill="#161b22" class="cell" data-count="0" data-hour="12" data-day="2"/><rect x="240" y="62" width="14" height="14" rx="2" fill="#161b22" class="cell" data-count="0" data-hour="13" data-day="2"/><rect x="256" y="62" width="14" height="14" rx="2" fill="#161b22" class="cell" data-count="0" data-hour="14" data-day="2"/><rect x="272" y="62" width="14" height="14" rx="2" fill="#161b22" class="cell" data-count="0" data-hour="15" data-day="2"/><rect x="288" y="62" width="14" height="14" rx="2" fill="#161b22" class="cell" data-count="0" data-hour="16" data-day="2"/><rect x="304" y="62" width="14" height="14" rx="2" fill="#161b22" class="cell" data-count="0" data-hour="17" data-day="2"/><rect x="320" y="62" width="14" height="14" rx="2" fill="#161b22" class="cell" data-count="0" data-hour="18" data-day="2"/><rect x="336" y="62" width="14" height="14" rx="2" fill="#161b22" class="cell" data-count="0" data-hour="19" data-day="2"/><rect x="352" y="62" width="14" height="14" rx="2" fill="#161b22" class="cell" data-count="0" data-hour="20" data-day="2"/><rect x="368" y="62" width="14" height="14" rx="2" fill="#161b22" class="cell" data-count="0" data-hour="21" data-day="2"/><rect x="384" y="62" width="14" height="14" rx="2" fill="#161b22" class="cell" data-count="0" data-hour="22" data-day="2"/><rect x="400" y="62" width="14" height="14" rx="2" fill="#161b22" class="cell" data-count="0" data-hour="23" data-day="2"/><rect x="32" y="78" width="14" height="14" rx="2" fill="#161b22" class="cell" data-count="0" data-hour="0" data-day="3"/><rect x="48" y="78" width="14" height="14" rx="2" fill="#161b22" class="cell" data-count="0" data-hour="1" data-day="3"/><rect x="64" y="78" width="14" height="14" rx="2" fill="#161b22" class="cell" data-count="0" data-hour="2" data-day="3"/><rect x="80" y="78" width="14" height="14" rx="2" fill="#161b22" class="cell" data-count="0" data-hour="3" data-day="3"/><rect x="96" y="78" width="14" height="14" rx="2" fill="#161b22" class="cell" data-count="0" data-hour="4" data-day="3"/><rect x="112" y="78" width="14" height="14" rx="2" fill="#161b22" class="cell" data-count="0" data-hour="5" data-day="3"/><rect x="128" y="78" width="14" height="14" rx="2" fill="#161b22" class="cell" data-count="0" data-hour="6" data-day="3"/><rect x="144" y="78" width="14" height="14" rx="2" fill="#161b22" class="cell" data-count="0" data-hour="7" data-day="3"/><rect x="160" y="78" width="14" height="14" rx="2" fill="#161b22" class="cell" data-count="0" data-hour="8" data-day="3"/><rect x="176" y="78" width="14" height="14" rx="2" fill="#161b22" class="cell" data-count="0" data-hour="9" data-day="3"/><rect x="192" y="78" width="14" height="14" rx="2" fill="#161b22" class="cell" data-count="0" data-hour="10" data-day="3"/><rect x="208" y="78" width="14" height="14" rx="2" fill="#161b22" class="cell" data-count="0" data-hour="11" data-day="3"/><rect x="224" y="78" width="14" height="14" rx="2" fill="#161b22" class="cell" data-count="0" data-hour="12" data-day="3"/><rect x="240" y="78" width="14" height="14" rx="2" fill="#161b22" class="cell" data-count="0" data-hour="13" data-day="3"/><rect x="256" y="78" width="14" height="14" rx="2" fill="#161b22" class="cell" data-count="0" data-hour="14" data-day="3"/><rect x="272" y="78" width="14" height="14" rx="2" fill="#161b22" class="cell" data-count="0" data-hour="15" data-day="3"/><rect x="288" y="78" width="14" height="14" rx="2" fill="#161b22" class="cell" data-count="0" data-hour="16" data-day="3"/><rect x="304" y="78" width="14" height="14" rx="2" fill="#161b22" class="cell" data-count="0" data-hour="17" data-day="3"/><rect x="320" y="78" width="14" height="14" rx="2" fill="#161b22" class="cell" data-count="0" data-hour="18" data-day="3"/><rect x="336" y="78" width="14" height="14" rx="2" fill="#161b22" class="cell" data-count="0" data-hour="19" data-day="3"/><rect x="352" y="78" width="14" height="14" rx="2" fill="#161b22" class="cell" data-count="0" data-hour="20" data-day="3"/><rect x="368" y="78" width="14" height="14" rx="2" fill="#161b22" class="cell" data-count="0" data-hour="21" data-day="3"/><rect x="384" y="78" width="14" height="14" rx="2" fill="#161b22" class="cell" data-count="0" data-hour="22" data-day="3"/><rect x="400" y="78" width="14" height="14" rx="2" fill="#161b22" class="cell" data-count="0" data-hour="23" data-day="3"/><rect x="32" y="94" width="14" height="14" rx="2" fill="#161b22" class="cell" data-count="0" data-hour="0" data-day="4"/><rect x="48" y="94" width="14" height="14" rx="2" fill="#161b22" class="cell" data-count="0" data-hour="1" data-day="4"/><rect x="64" y="94" width="14" height="14" rx="2" fill="#161b22" class="cell" data-count="0" data-hour="2" data-day="4"/><rect x="80" y="94" width="14" height="14" rx="2" fill="#161b22" class="cell" data-count="0" data-hour="3" data-day="4"/><rect x="96" y="94" width="14" height="14" rx="2" fill="#161b22" class="cell" data-count="0" data-hour="4" data-day="4"/><rect x="112" y="94" width="14" height="14" rx="2" fill="#161b22" class="cell" data-count="0" data-hour="5" data-day="4"/><rect x="128" y="94" width="14" height="14" rx="2" fill="#161b22" class="cell" data-count="0" data-hour="6" data-day="4"/><rect x="144" y="94" width="14" height="14" rx="2" fill="#161b22" class="cell" data-count="0" data-hour="7" data-day="4"/><rect x="160" y="94" width="14" height="14" rx="2" fill="#161b22" class="cell" data-count="0" data-hour="8" data-day="4"/><rect x="176" y="94" width="14" height="14" rx="2" fill="#161b22" class="cell" data-count="0" data-hour="9" data-day="4"/><rect x="192" y="94" width="14" height="14" rx="2" fill="#161b22" class="cell" data-count="0" data-hour="10" data-day="4"/><rect x="208" y="94" width="14" height="14" rx="2" fill="#161b22" class="cell" data-count="0" data-hour="11" data-day="4"/><rect x="224" y="94" width="14" height="14" rx="2" fill="#161b22" class="cell" data-count="0" data-hour="12" data-day="4"/><rect x="240" y="94" width="14" height="14" rx="2" fill="#161b22" class="cell" data-count="0" data-hour="13" data-day="4"/><rect x="256" y="94" width="14" height="14" rx="2" fill="#161b22" class="cell" data-count="0" data-hour="14" data-day="4"/><rect x="272" y="94" width="14" height="14" rx="2" fill="#161b22" class="cell" data-count="0" data-hour="15" data-day="4"/><rect x="288" y="94" width="14" height="14" rx="2" fill="#161b22" class="cell" data-count="0" data-hour="16" data-day="4"/><rect x="304" y="94" width="14" height="14" rx="2" fill="#161b22" class="cell" data-count="0" data-hour="17" data-day="4"/><rect x="320" y="94" width="14" height="14" rx="2" fill="#161b22" class="cell" data-count="0" data-hour="18" data-day="4"/><rect x="336" y="94" width="14" height="14" rx="2" fill="#161b22" class="cell" data-count="0" data-hour="19" data-day="4"/><rect x="352" y="94" width="14" height="14" rx="2" fill="#161b22" class="cell" data-count="0" data-hour="20" data-day="4"/><rect x="368" y="94" width="14" height="14" rx="2" fill="#161b22" class="cell" data-count="0" data-hour="21" data-day="4"/><rect x="384" y="94" width="14" height="14" rx="2" fill="#161b22" class="cell" data-count="0" data-hour="22" data-day="4"/><rect x="400" y="94" width="14" height="14" rx="2" fill="#161b22" class="cell" data-count="0" data-hour="23" data-day="4"/><rect x="32" y="110" width="14" height="14" rx="2" fill="#161b22" class="cell" data-count="0" data-hour="0" data-day="5"/><rect x="48" y="110" width="14" height="14" rx="2" fill="#161b22" class="cell" data-count="0" data-hour="1" data-day="5"/><rect x="64" y="110" width="14" height="14" rx="2" fill="#161b22" class="cell" data-count="0" data-hour="2" data-day="5"/><rect x="80" y="110" width="14" height="14" rx="2" fill="#161b22" class="cell" data-count="0" data-hour="3" data-day="5"/><rect x="96" y="110" width="14" height="14" rx="2" fill="#161b22" class="cell" data-count="0" data-hour="4" data-day="5"/><rect x="112" y="110" width="14" height="14" rx="2" fill="#161b22" class="cell" data-count="0" data-hour="5" data-day="5"/><rect x="128" y="110" width="14" height="14" rx="2" fill="#161b22" class="cell" data-count="0" data-hour="6" data-day="5"/><rect x="144" y="110" width="14" height="14" rx="2" fill="#161b22" class="cell" data-count="0" data-hour="7" data-day="5"/><rect x="160" y="110" width="14" height="14" rx="2" fill="#161b22" class="cell" data-count="0" data-hour="8" data-day="5"/><rect x="176" y="110" width="14" height="14" rx="2" fill="#161b22" class="cell" data-count="0" data-hour="9" data-day="5"/><rect x="192" y="110" width="14" height="14" rx="2" fill="#161b22" class="cell" data-count="0" data-hour="10" data-day="5"/><rect x="208" y="110" width="14" height="14" rx="2" fill="#161b22" class="cell" data-count="0" data-hour="11" data-day="5"/><rect x="224" y="110" width="14" height="14" rx="2" fill="#161b22" class="cell" data-count="0" data-hour="12" data-day="5"/><rect x="240" y="110" width="14" height="14" rx="2" fill="#161b22" class="cell" data-count="0" data-hour="13" data-day="5"/><rect x="256" y="110" width="14" height="14" rx="2" fill="#161b22" class="cell" data-count="0" data-hour="14" data-day="5"/><rect x="272" y="110" width="14" height="14" rx="2" fill="#161b22" class="cell" data-count="0" data-hour="15" data-day="5"/><rect x="288" y="110" width="14" height="14" rx="2" fill="#161b22" class="cell" data-count="0" data-hour="16" data-day="5"/><rect x="304" y="110" width="14" height="14" rx="2" fill="#161b22" class="cell" data-count="0" data-hour="17" data-day="5"/><rect x="320" y="110" width="14" height="14" rx="2" fill="#161b22" class="cell" data-count="0" data-hour="18" data-day="5"/><rect x="336" y="110" width="14" height="14" rx="2" fill="#161b22" class="cell" data-count="0" data-hour="19" data-day="5"/><rect x="352" y="110" width="14" height="14" rx="2" fill="#161b22" class="cell" data-count="0" data-hour="20" data-day="5"/><rect x="368" y="110" width="14" height="14" rx="2" fill="#161b22" class="cell" data-count="0" data-hour="21" data-day="5"/><rect x="384" y="110" width="14" height="14" rx="2" fill="#161b22" class="cell" data-count="0" data-hour="22" data-day="5"/><rect x="400" y="110" width="14" height="14" rx="2" fill="#161b22" class="cell" data-count="0" data-hour="23" data-day="5"/><rect x="32" y="126" width="14" height="14" rx="2" fill="#161b22" class="cell" data-count="0" data-hour="0" data-day="6"/><rect x="48" y="126" width="14" height="14" rx="2" fill="#161b22" class="cell" data-count="0" data-hour="1" data-day="6"/><rect x="64" y="126" width="14" height="14" rx="2" fill="#161b22" class="cell" data-count="0" data-hour="2" data-day="6"/><rect x="80" y="126" width="14" height="14" rx="2" fill="#161b22" class="cell" data-count="0" data-hour="3" data-day="6"/><rect x="96" y="126" width="14" height="14" rx="2" fill="#161b22" class="cell" data-count="0" data-hour="4" data-day="6"/><rect x="112" y="126" width="14" height="14" rx="2" fill="#161b22" class="cell" data-count="0" data-hour="5" data-day="6"/><rect x="128" y="126" width="14" height="14" rx="2" fill="#161b22" class="cell" data-count="0" data-hour="6" data-day="6"/><rect x="144" y="126" width="14" height="14" rx="2" fill="#161b22" class="cell" data-count="0" data-hour="7" data-day="6"/><rect x="160" y="126" width="14" height="14" rx="2" fill="#161b22" class="cell" data-count="0" data-hour="8" data-day="6"/><rect x="176" y="126" width="14" height="14" rx="2" fill="#161b22" class="cell" data-count="0" data-hour="9" data-day="6"/><rect x="192" y="126" width="14" height="14" rx="2" fill="#161b22" class="cell" data-count="0" data-hour="10" data-day="6"/><rect x="208" y="126" width="14" height="14" rx="2" fill="#161b22" class="cell" data-count="0" data-hour="11" data-day="6"/><rect x="224" y="126" width="14" height="14" rx="2" fill="#161b22" class="cell" data-count="0" data-hour="12" data-day="6"/><rect x="240" y="126" width="14" height="14" rx="2" fill="#161b22" class="cell" data-count="0" data-hour="13" data-day="6"/><rect x="256" y="126" width="14" height="14" rx="2" fill="#161b22" class="cell" data-count="0" data-hour="14" data-day="6"/><rect x="272" y="126" width="14" height="14" rx="2" fill="#161b22" class="cell" data-count="0" data-hour="15" data-day="6"/><rect x="288" y="126" width="14" height="14" rx="2" fill="#161b22" class="cell" data-count="0" data-hour="16" data-day="6"/><rect x="304" y="126" width="14" height="14" rx="2" fill="#161b22" class="cell" data-count="0" data-hour="17" data-day="6"/><rect x="320" y="126" width="14" height="14" rx="2" fill="#161b22" class="cell" data-count="0" data-hour="18" data-day="6"/><rect x="336" y="126" width="14" height="14" rx="2" fill="#161b22" class="cell" data-count="0" data-hour="19" data-day="6"/><rect x="352" y="126" width="14" height="14" rx="2" fill="#161b22" class="cell" data-count="0" data-hour="20" data-day="6"/><rect x="368" y="126" width="14" height="14" rx="2" fill="#161b22" class="cell" data-count="0" data-hour="21" data-day="6"/><rect x="384" y="126" width="14" height="14" rx="2" fill="#161b22" class="cell" data-count="0" data-hour="22" data-day="6"/><rect x="400" y="126" width="14" height="14" rx="2" fill="#161b22" class="cell" data-count="0" data-hour="23" data-day="6"/>
  <text x="258" y="158" class="lbl">Less</text>
  <g transform="translate(286, 148)"><rect x="0" y="148" width="12" height="12" rx="2" fill="#161b22"/><text x="15" y="158" class="lbl">0</text><rect x="18" y="148" width="12" height="12" rx="2" fill="#161b22"/><text x="33" y="158" class="lbl">0</text><rect x="36" y="148" width="12" height="12" rx="2" fill="#39d353"/><text x="51" y="158" class="lbl">1</text><rect x="54" y="148" width="12" height="12" rx="2" fill="#39d353"/><text x="69" y="158" class="lbl">1</text><rect x="72" y="148" width="12" height="12" rx="2" fill="#39d353"/><text x="87" y="158" class="lbl">1</text></g>
  <text x="386" y="158" class="lbl">More</text>
</svg>