<?xml version="1.0" encoding="utf-8"?>
<svg xmlns="http://www.w3.org/2000/svg" width="588" height="184" style="background:#0d1117;font-family:ui-sans-serif,system-ui,sans-serif">
  <style>
    .cell { rx:2 }
    .label { fill:#8b949e; font-size:11px; font-family:ui-sans-serif,system-ui,sans-serif }
    .title { fill:#e6edf3; font-size:13px; font-weight:600; font-family:ui-sans-serif,system-ui,sans-serif }
  </style>
  <text x="4" y="14" class="title">24-Hour Commit Activity</text>
  <text x="44" y="59" text-anchor="end" font-family="ui-sans-serif,system-ui,sans-serif" font-size="11" fill="#8b949e">Mon</text>
  <text x="44" y="103" text-anchor="end" font-family="ui-sans-serif,system-ui,sans-serif" font-size="11" fill="#8b949e">Wed</text>
  <text x="44" y="147" text-anchor="end" font-family="ui-sans-serif,system-ui,sans-serif" font-size="11" fill="#8b949e">Fri</text>
  <text x="59" y="180" text-anchor="middle" font-family="ui-sans-serif,system-ui,sans-serif" font-size="10" fill="#8b949e">0:00</text>
  <text x="147" y="180" text-anchor="middle" font-family="ui-sans-serif,system-ui,sans-serif" font-size="10" fill="#8b949e">4:00</text>
  <text x="235" y="180" text-anchor="middle" font-family="ui-sans-serif,system-ui,sans-serif" font-size="10" fill="#8b949e">8:00</text>
  <text x="323" y="180" text-anchor="middle" font-family="ui-sans-serif,system-ui,sans-serif" font-size="10" fill="#8b949e">12:00</text>
  <text x="411" y="180" text-anchor="middle" font-family="ui-sans-serif,system-ui,sans-serif" font-size="10" fill="#8b949e">16:00</text>
  <text x="499" y="180" text-anchor="middle" font-family="ui-sans-serif,system-ui,sans-serif" font-size="10" fill="#8b949e">20:00</text>
  <rect x="50" y="24" width="18" height="18" rx="2" fill="#26a641" />
  <rect x="72" y="24" width="18" height="18" rx="2" fill="#0e4429" />
  <rect x="94" y="24" width="18" height="18" rx="2" fill="#006d32" />
  <rect x="116" y="24" width="18" height="18" rx="2" fill="#0e4429" />
  <rect x="138" y="24" width="18" height="18" rx="2" fill="#006d32" />
  <rect x="160" y="24" width="18" height="18" rx="2" fill="#006d32" />
  <rect x="182" y="24" width="18" height="18" rx="2" fill="#26a641" />
  <rect x="204" y="24" width="18" height="18" rx="2" fill="#006d32" />
  <rect x="226" y="24" width="18" height="18" rx="2" fill="#26a641" />
  <rect x="248" y="24" width="18" height="18" rx="2" fill="#006d32" />
  <rect x="270" y="24" width="18" height="18" rx="2" fill="#26a641" />
  <rect x="292" y="24" width="18" height="18" rx="2" fill="#0e4429" />
  <rect x="314" y="24" width="18" height="18" rx="2" fill="#0e4429" />
  <rect x="336" y="24" width="18" height="18" rx="2" fill="#0e4429" />
  <rect x="358" y="24" width="18" height="18" rx="2" fill="#26a641" />
  <rect x="380" y="24" width="18" height="18" rx="2" fill="#006d32" />
  <rect x="402" y="24" width="18" height="18" rx="2" fill="#161b22" />
  <rect x="424" y="24" width="18" height="18" rx="2" fill="#161b22" />
  <rect x="446" y="24" width="18" height="18" rx="2" fill="#161b22" />
  <rect x="468" y="24" width="18" height="18" rx="2" fill="#006d32" />
  <rect x="490" y="24" width="18" height="18" rx="2" fill="#006d32" />
  <rect x="512" y="24" width="18" height="18" rx="2" fill="#0e4429" />
  <rect x="534" y="24" width="18" height="18" rx="2" fill="#161b22" />
  <rect x="556" y="24" width="18" height="18" rx="2" fill="#0e4429" />
  <rect x="50" y="46" width="18" height="18" rx="2" fill="#161b22" />
  <rect x="72" y="46" width="18" height="18" rx="2" fill="#006d32" />
  <rect x="94" y="46" width="18" height="18" rx="2" fill="#006d32" />
  <rect x="116" y="46" width="18" height="18" rx="2" fill="#0e4429" />
  <rect x="138" y="46" width="18" height="18" rx="2" fill="#26a641" />
  <rect x="160" y="46" width="18" height="18" rx="2" fill="#161b22" />
  <rect x="182" y="46" width="18" height="18" rx="2" fill="#0e4429" />
  <rect x="204" y="46" width="18" height="18" rx="2" fill="#006d32" />
  <rect x="226" y="46" width="18" height="18" rx="2" fill="#006d32" />
  <rect x="248" y="46" width="18" height="18" rx="2" fill="#006d32" />
  <rect x="270" y="46" width="18" height="18" rx="2" fill="#006d32" />
  <rect x="292" y="46" width="18" height="18" rx="2" fill="#0e4429" />
  <rect x="314" y="46" width="18" height="18" rx="2" fill="#0e4429" />
  <rect x="336" y="46" width="18" height="18" rx="2" fill="#161b22" />
  <rect x="358" y="46" width="18" height="18" rx="2" fill="#006d32" />
  <rect x="380" y="46" width="18" height="18" rx="2" fill="#0e4429" />
  <rect x="402" y="46" width="18" height="18" rx="2" fill="#161b22" />
  <rect x="424" y="46" width="18" height="18" rx="2" fill="#0e4429" />
  <rect x="446" y="46" width="18" height="18" rx="2" fill="#0e4429" />
  <rect x="468" y="46" width="18" height="18" rx="2" fill="#0e4429" />
  <rect x="490" y="46" width="18" height="18" rx="2" fill="#006d32" />
  <rect x="512" y="46" width="18" height="18" rx="2" fill="#0e4429" />
  <rect x="534" y="46" width="18" height="18" rx="2" fill="#006d32" />
  <rect x="556" y="46" width="18" height="18" rx="2" fill="#0e4429" />
  <rect x="50" y="68" width="18" height="18" rx="2" fill="#26a641" />
  <rect x="72" y="68" width="18" height="18" rx="2" fill="#006d32" />
  <rect x="94" y="68" width="18" height="18" rx="2" fill="#0e4429" />
  <rect x="116" y="68" width="18" height="18" rx="2" fill="#161b22" />
  <rect x="138" y="68" width="18" height="18" rx="2" fill="#006d32" />
  <rect x="160" y="68" width="18" height="18" rx="2" fill="#006d32" />
  <rect x="182" y="68" width="18" height="18" rx="2" fill="#006d32" />
  <rect x="204" y="68" width="18" height="18" rx="2" fill="#26a641" />
  <rect x="226" y="68" width="18" height="18" rx="2" fill="#006d32" />
  <rect x="248" y="68" width="18" height="18" rx="2" fill="#0e4429" />
  <rect x="270" y="68" width="18" height="18" rx="2" fill="#006d32" />
  <rect x="292" y="68" width="18" height="18" rx="2" fill="#0e4429" />
  <rect x="314" y="68" width="18" height="18" rx="2" fill="#006d32" />
  <rect x="336" y="68" width="18" height="18" rx="2" fill="#006d32" />
  <rect x="358" y="68" width="18" height="18" rx="2" fill="#006d32" />
  <rect x="380" y="68" width="18" height="18" rx="2" fill="#0e4429" />
  <rect x="402" y="68" width="18" height="18" rx="2" fill="#0e4429" />
  <rect x="424" y="68" width="18" height="18" rx="2" fill="#0e4429" />
  <rect x="446" y="68" width="18" height="18" rx="2" fill="#006d32" />
  <rect x="468" y="68" width="18" height="18" rx="2" fill="#006d32" />
  <rect x="490" y="68" width="18" height="18" rx="2" fill="#26a641" />
  <rect x="512" y="68" width="18" height="18" rx="2" fill="#006d32" />
  <rect x="534" y="68" width="18" height="18" rx="2" fill="#006d32" />
  <rect x="556" y="68" width="18" height="18" rx="2" fill="#0e4429" />
  <rect x="50" y="90" width="18" height="18" rx="2" fill="#161b22" />
  <rect x="72" y="90" width="18" height="18" rx="2" fill="#161b22" />
  <rect x="94" y="90" width="18" height="18" rx="2" fill="#161b22" />
  <rect x="116" y="90" width="18" height="18" rx="2" fill="#006d32" />
  <rect x="138" y="90" width="18" height="18" rx="2" fill="#0e4429" />
  <rect x="160" y="90" width="18" height="18" rx="2" fill="#0e4429" />
  <rect x="182" y="90" width="18" height="18" rx="2" fill="#006d32" />
  <rect x="204" y="90" width="18" height="18" rx="2" fill="#26a641" />
  <rect x="226" y="90" width="18" height="18" rx="2" fill="#006d32" />
  <rect x="248" y="90" width="18" height="18" rx="2" fill="#006d32" />
  <rect x="270" y="90" width="18" height="18" rx="2" fill="#006d32" />
  <rect x="292" y="90" width="18" height="18" rx="2" fill="#161b22" />
  <rect x="314" y="90" width="18" height="18" rx="2" fill="#006d32" />
  <rect x="336" y="90" width="18" height="18" rx="2" fill="#006d32" />
  <rect x="358" y="90" width="18" height="18" rx="2" fill="#006d32" />
  <rect x="380" y="90" width="18" height="18" rx="2" fill="#0e4429" />
  <rect x="402" y="90" width="18" height="18" rx="2" fill="#006d32" />
  <rect x="424" y="90" width="18" height="18" rx="2" fill="#0e4429" />
  <rect x="446" y="90" width="18" height="18" rx="2" fill="#006d32" />
  <rect x="468" y="90" width="18" height="18" rx="2" fill="#006d32" />
  <rect x="490" y="90" width="18" height="18" rx="2" fill="#161b22" />
  <rect x="512" y="90" width="18" height="18" rx="2" fill="#006d32" />
  <rect x="534" y="90" width="18" height="18" rx="2" fill="#0e4429" />
  <rect x="556" y="90" width="18" height="18" rx="2" fill="#006d32" />
  <rect x="50" y="112" width="18" height="18" rx="2" fill="#006d32" />
  <rect x="72" y="112" width="18" height="18" rx="2" fill="#161b22" />
  <rect x="94" y="112" width="18" height="18" rx="2" fill="#006d32" />
  <rect x="116" y="112" width="18" height="18" rx="2" fill="#0e4429" />
  <rect x="138" y="112" width="18" height="18" rx="2" fill="#161b22" />
  <rect x="160" y="112" width="18" height="18" rx="2" fill="#0e4429" />
  <rect x="182" y="112" width="18" height="18" rx="2" fill="#0e4429" />
  <rect x="204" y="112" width="18" height="18" rx="2" fill="#0e4429" />
  <rect x="226" y="112" width="18" height="18" rx="2" fill="#26a641" />
  <rect x="248" y="112" width="18" height="18" rx="2" fill="#006d32" />
  <rect x="270" y="112" width="18" height="18" rx="2" fill="#006d32" />
  <rect x="292" y="112" width="18" height="18" rx="2" fill="#161b22" />
  <rect x="314" y="112" width="18" height="18" rx="2" fill="#0e4429" />
  <rect x="336" y="112" width="18" height="18" rx="2" fill="#006d32" />
  <rect x="358" y="112" width="18" height="18" rx="2" fill="#006d32" />
  <rect x="380" y="112" width="18" height="18" rx="2" fill="#0e4429" />
  <rect x="402" y="112" width="18" height="18" rx="2" fill="#006d32" />
  <rect x="424" y="112" width="18" height="18" rx="2" fill="#161b22" />
  <rect x="446" y="112" width="18" height="18" rx="2" fill="#006d32" />
  <rect x="468" y="112" width="18" height="18" rx="2" fill="#0e4429" />
  <rect x="490" y="112" width="18" height="18" rx="2" fill="#26a641" />
  <rect x="512" y="112" width="18" height="18" rx="2" fill="#006d32" />
  <rect x="534" y="112" width="18" height="18" rx="2" fill="#0e4429" />
  <rect x="556" y="112" width="18" height="18" rx="2" fill="#0e4429" />
  <rect x="50" y="134" width="18" height="18" rx="2" fill="#006d32" />
  <rect x="72" y="134" width="18" height="18" rx="2" fill="#0e4429" />
  <rect x="94" y="134" width="18" height="18" rx="2" fill="#006d32" />
  <rect x="116" y="134" width="18" height="18" rx="2" fill="#006d32" />
  <rect x="138" y="134" width="18" height="18" rx="2" fill="#161b22" />
  <rect x="160" y="134" width="18" height="18" rx="2" fill="#006d32" />
  <rect x="182" y="134" width="18" height="18" rx="2" fill="#26a641" />
  <rect x="204" y="134" width="18" height="18" rx="2" fill="#26a641" />
  <rect x="226" y="134" width="18" height="18" rx="2" fill="#161b22" />
  <rect x="248" y="134" width="18" height="18" rx="2" fill="#0e4429" />
  <rect x="270" y="134" width="18" height="18" rx="2" fill="#006d32" />
  <rect x="292" y="134" width="18" height="18" rx="2" fill="#0e4429" />
  <rect x="314" y="134" width="18" height="18" rx="2" fill="#0e4429" />
  <rect x="336" y="134" width="18" height="18" rx="2" fill="#006d32" />
  <rect x="358" y="134" width="18" height="18" rx="2" fill="#006d32" />
  <rect x="380" y="134" width="18" height="18" rx="2" fill="#006d32" />
  <rect x="402" y="134" width="18" height="18" rx="2" fill="#161b22" />
  <rect x="424" y="134" width="18" height="18" rx="2" fill="#161b22" />
  <rect x="446" y="134" width="18" height="18" rx="2" fill="#006d32" />
  <rect x="468" y="134" width="18" height="18" rx="2" fill="#006d32" />
  <rect x="490" y="134" width="18" height="18" rx="2" fill="#26a641" />
  <rect x="512" y="134" width="18" height="18" rx="2" fill="#26a641" />
  <rect x="534" y="134" width="18" height="18" rx="2" fill="#006d32" />
  <rect x="556" y="134" width="18" height="18" rx="2" fill="#0e4429" />
  <rect x="50" y="156" width="18" height="18" rx="2" fill="#006d32" />
  <rect x="72" y="156" width="18" height="18" rx="2" fill="#26a641" />
  <rect x="94" y="156" width="18" height="18" rx="2" fill="#006d32" />
  <rect x="116" y="156" width="18" height="18" rx="2" fill="#006d32" />
  <rect x="138" y="156" width="18" height="18" rx="2" fill="#161b22" />
  <rect x="160" y="156" width="18" height="18" rx="2" fill="#006d32" />
  <rect x="182" y="156" width="18" height="18" rx="2" fill="#26a641" />
  <rect x="204" y="156" width="18" height="18" rx="2" fill="#006d32" />
  <rect x="226" y="156" width="18" height="18" rx="2" fill="#006d32" />
  <rect x="248" y="156" width="18" height="18" rx="2" fill="#006d32" />
  <rect x="270" y="156" width="18" height="18" rx="2" fill="#26a641" />
  <rect x="292" y="156" width="18" height="18" rx="2" fill="#0e4429" />
  <rect x="314" y="156" width="18" height="18" rx="2" fill="#006d32" />
  <rect x="336" y="156" width="18" height="18" rx="2" fill="#26a641" />
  <rect x="358" y="156" width="18" height="18" rx="2" fill="#006d32" />
  <rect x="380" y="156" width="18" height="18" rx="2" fill="#0e4429" />
  <rect x="402" y="156" width="18" height="18" rx="2" fill="#0e4429" />
  <rect x="424" y="156" width="18" height="18" rx="2" fill="#0e4429" />
  <rect x="446" y="156" width="18" height="18" rx="2" fill="#006d32" />
  <rect x="468" y="156" width="18" height="18" rx="2" fill="#26a641" />
  <rect x="490" y="156" width="18" height="18" rx="2" fill="#006d32" />
  <rect x="512" y="156" width="18" height="18" rx="2" fill="#006d32" />
  <rect x="534" y="156" width="18" height="18" rx="2" fill="#006d32" />
  <rect x="556" y="156" width="18" height="18" rx="2" fill="#006d32" />
  <text x="464" y="172" class="label">Less</text>
  <rect x="468" y="162" width="12" height="12" rx="2" fill="#161b22" />
  <rect x="484" y="162" width="12" height="12" rx="2" fill="#0e4429" />
  <rect x="500" y="162" width="12" height="12" rx="2" fill="#006d32" />
  <rect x="516" y="162" width="12" height="12" rx="2" fill="#26a641" />
  <rect x="532" y="162" width="12" height="12" rx="2" fill="#39d353" />
  <text x="558" y="172" class="label">More</text>
</svg>