<svg xmlns="http://www.w3.org/2000/svg" viewBox="0 0 416 170" width="100%">
  <style>
    .title { font-size:13px; font-weight:600; fill:#e6edf3; }
    .lbl { font-size:10px; fill:#8b949e; }
    .cell { transition:opacity 0.15s; cursor:default; }
    .cell:hover { opacity:0.75; outline:1px solid #58a6ff; }
  </style>
  <rect width="416" height="170" fill="#0d1117"/>
  <text x="4" y="20" class="title">24-Hour Commit Activity · 86 total · last 7 days</text>
  <text x="2" y="41" class="lbl" dominant-baseline="middle">Sun</text><text x="2" y="57" class="lbl" dominant-baseline="middle">Mon</text><text x="2" y="73" class="lbl" dominant-baseline="middle">Tue</text><text x="2" y="89" class="lbl" dominant-baseline="middle">Wed</text><text x="2" y="105" class="lbl" dominant-baseline="middle">Thu</text><text x="2" y="121" class="lbl" dominant-baseline="middle">Fri</text><text x="2" y="137" class="lbl" dominant-baseline="middle">Sat</text>
  <text x="32" y="24" class="lbl">12am</text>
  <text x="124" y="24" class="lbl">6am</text>
  <text x="220" y="24" class="lbl">12pm</text>
  <text x="316" y="24" class="lbl">6pm</text>
  <rect x="32" y="30" width="14" height="14" rx="2" fill="#161b22" class="cell" data-count="0"/><rect x="48" y="30" width="14" height="14" rx="2" fill="#161b22" class="cell" data-count="0"/><rect x="64" y="30" width="14" height="14" rx="2" fill="#161b22" class="cell" data-count="0"/><rect x="80" y="30" width="14" height="14" rx="2" fill="#161b22" class="cell" data-count="0"/><rect x="96" y="30" width="14" height="14" rx="2" fill="#161b22" class="cell" data-count="0"/><rect x="112" y="30" width="14" height="14" rx="2" fill="#161b22" class="cell" data-count="0"/><rect x="128" y="30" width="14" height="14" rx="2" fill="#161b22" class="cell" data-count="0"/><rect x="144" y="30" width="14" height="14" rx="2" fill="#161b22" class="cell" data-count="0"/><rect x="160" y="30" width="14" height="14" rx="2" fill="#161b22" class="cell" data-count="0"/><rect x="176" y="30" width="14" height="14" rx="2" fill="#161b22" class="cell" data-count="0"/><rect x="192" y="30" width="14" height="14" rx="2" fill="#161b22" class="cell" data-count="0"/><rect x="208" y="30" width="14" height="14" rx="2" fill="#161b22" class="cell" data-count="0"/><rect x="224" y="30" width="14" height="14" rx="2" fill="#161b22" class="cell" data-count="0"/><rect x="240" y="30" width="14" height="14" rx="2" fill="#161b22" class="cell" data-count="0"/><rect x="256" y="30" width="14" height="14" rx="2" fill="#161b22" class="cell" data-count="0"/><rect x="272" y="30" width="14" height="14" rx="2" fill="#161b22" class="cell" data-count="0"/><rect x="288" y="30" width="14" height="14" rx="2" fill="#161b22" class="cell" data-count="0"/><rect x="304" y="30" width="14" height="14" rx="2" fill="#161b22" class="cell" data-count="0"/><rect x="320" y="30" width="14" height="14" rx="2" fill="#161b22" class="cell" data-count="0"/><rect x="336" y="30" width="14" height="14" rx="2" fill="#161b22" class="cell" data-count="0"/><rect x="352" y="30" width="14" height="14" rx="2" fill="#161b22" class="cell" data-count="0"/><rect x="368" y="30" width="14" height="14" rx="2" fill="#161b22" class="cell" data-count="0"/><rect x="384" y="30" width="14" height="14" rx="2" fill="#161b22" class="cell" data-count="0"/><rect x="400" y="30" width="14" height="14" rx="2" fill="#161b22" class="cell" data-count="0"/><rect x="32" y="46" width="14" height="14" rx="2" fill="#006d32" class="cell" data-count="5"/><rect x="48" y="46" width="14" height="14" rx="2" fill="#39d353" class="cell" data-count="20"/><rect x="64" y="46" width="14" height="14" rx="2" fill="#006d32" class="cell" data-count="8"/><rect x="80" y="46" width="14" height="14" rx="2" fill="#161b22" class="cell" data-count="0"/><rect x="96" y="46" width="14" height="14" rx="2" fill="#161b22" class="cell" data-count="0"/><rect x="112" y="46" width="14" height="14" rx="2" fill="#161b22" class="cell" data-count="0"/><rect x="128" y="46" width="14" height="14" rx="2" fill="#161b22" class="cell" data-count="0"/><rect x="144" y="46" width="14" height="14" rx="2" fill="#161b22" class="cell" data-count="0"/><rect x="160" y="46" width="14" height="14" rx="2" fill="#006d32" class="cell" data-count="5"/><rect x="176" y="46" width="14" height="14" rx="2" fill="#006d32" class="cell" data-count="8"/><rect x="192" y="46" width="14" height="14" rx="2" fill="#161b22" class="cell" data-count="0"/><rect x="208" y="46" width="14" height="14" rx="2" fill="#161b22" class="cell" data-count="0"/><rect x="224" y="46" width="14" height="14" rx="2" fill="#161b22" class="cell" data-count="0"/><rect x="240" y="46" width="14" height="14" rx="2" fill="#006d32" class="cell" data-count="6"/><rect x="256" y="46" width="14" height="14" rx="2" fill="#161b22" class="cell" data-count="0"/><rect x="272" y="46" width="14" height="14" rx="2" fill="#39d353" class="cell" data-count="17"/><rect x="288" y="46" width="14" height="14" rx="2" fill="#161b22" class="cell" data-count="0"/><rect x="304" y="46" width="14" height="14" rx="2" fill="#161b22" class="cell" data-count="0"/><rect x="320" y="46" width="14" height="14" rx="2" fill="#0e4429" class="cell" data-count="3"/><rect x="336" y="46" width="14" height="14" rx="2" fill="#0e4429" class="cell" data-count="2"/><rect x="352" y="46" width="14" height="14" rx="2" fill="#161b22" class="cell" data-count="0"/><rect x="368" y="46" width="14" height="14" rx="2" fill="#006d32" class="cell" data-count="9"/><rect x="384" y="46" width="14" height="14" rx="2" fill="#161b22" class="cell" data-count="0"/><rect x="400" y="46" width="14" height="14" rx="2" fill="#0e4429" class="cell" data-count="3"/><rect x="32" y="62" width="14" height="14" rx="2" fill="#006d32" class="cell" data-count="5"/><rect x="48" y="62" width="14" height="14" rx="2" fill="#39d353" class="cell" data-count="20"/><rect x="64" y="62" width="14" height="14" rx="2" fill="#006d32" class="cell" data-count="8"/><rect x="80" y="62" width="14" height="14" rx="2" fill="#161b22" class="cell" data-count="0"/><rect x="96" y="62" width="14" height="14" rx="2" fill="#161b22" class="cell" data-count="0"/><rect x="112" y="62" width="14" height="14" rx="2" fill="#161b22" class="cell" data-count="0"/><rect x="128" y="62" width="14" height="14" rx="2" fill="#161b22" class="cell" data-count="0"/><rect x="144" y="62" width="14" height="14" rx="2" fill="#161b22" class="cell" data-count="0"/><rect x="160" y="62" width="14" height="14" rx="2" fill="#006d32" class="cell" data-count="5"/><rect x="176" y="62" width="14" height="14" rx="2" fill="#006d32" class="cell" data-count="8"/><rect x="192" y="62" width="14" height="14" rx="2" fill="#161b22" class="cell" data-count="0"/><rect x="208" y="62" width="14" height="14" rx="2" fill="#161b22" class="cell" data-count="0"/><rect x="224" y="62" width="14" height="14" rx="2" fill="#161b22" class="cell" data-count="0"/><rect x="240" y="62" width="14" height="14" rx="2" fill="#006d32" class="cell" data-count="6"/><rect x="256" y="62" width="14" height="14" rx="2" fill="#161b22" class="cell" data-count="0"/><rect x="272" y="62" width="14" height="14" rx="2" fill="#39d353" class="cell" data-count="17"/><rect x="288" y="62" width="14" height="14" rx="2" fill="#161b22" class="cell" data-count="0"/><rect x="304" y="62" width="14" height="14" rx="2" fill="#161b22" class="cell" data-count="0"/><rect x="320" y="62" width="14" height="14" rx="2" fill="#0e4429" class="cell" data-count="3"/><rect x="336" y="62" width="14" height="14" rx="2" fill="#0e4429" class="cell" data-count="2"/><rect x="352" y="62" width="14" height="14" rx="2" fill="#161b22" class="cell" data-count="0"/><rect x="368" y="62" width="14" height="14" rx="2" fill="#006d32" class="cell" data-count="9"/><rect x="384" y="62" width="14" height="14" rx="2" fill="#161b22" class="cell" data-count="0"/><rect x="400" y="62" width="14" height="14" rx="2" fill="#0e4429" class="cell" data-count="3"/><rect x="32" y="78" width="14" height="14" rx="2" fill="#006d32" class="cell" data-count="5"/><rect x="48" y="78" width="14" height="14" rx="2" fill="#39d353" class="cell" data-count="20"/><rect x="64" y="78" width="14" height="14" rx="2" fill="#006d32" class="cell" data-count="8"/><rect x="80" y="78" width="14" height="14" rx="2" fill="#161b22" class="cell" data-count="0"/><rect x="96" y="78" width="14" height="14" rx="2" fill="#161b22" class="cell" data-count="0"/><rect x="112" y="78" width="14" height="14" rx="2" fill="#161b22" class="cell" data-count="0"/><rect x="128" y="78" width="14" height="14" rx="2" fill="#161b22" class="cell" data-count="0"/><rect x="144" y="78" width="14" height="14" rx="2" fill="#161b22" class="cell" data-count="0"/><rect x="160" y="78" width="14" height="14" rx="2" fill="#006d32" class="cell" data-count="5"/><rect x="176" y="78" width="14" height="14" rx="2" fill="#006d32" class="cell" data-count="8"/><rect x="192" y="78" width="14" height="14" rx="2" fill="#161b22" class="cell" data-count="0"/><rect x="208" y="78" width="14" height="14" rx="2" fill="#161b22" class="cell" data-count="0"/><rect x="224" y="78" width="14" height="14" rx="2" fill="#161b22" class="cell" data-count="0"/><rect x="240" y="78" width="14" height="14" rx="2" fill="#006d32" class="cell" data-count="6"/><rect x="256" y="78" width="14" height="14" rx="2" fill="#161b22" class="cell" data-count="0"/><rect x="272" y="78" width="14" height="14" rx="2" fill="#39d353" class="cell" data-count="17"/><rect x="288" y="78" width="14" height="14" rx="2" fill="#161b22" class="cell" data-count="0"/><rect x="304" y="78" width="14" height="14" rx="2" fill="#161b22" class="cell" data-count="0"/><rect x="320" y="78" width="14" height="14" rx="2" fill="#0e4429" class="cell" data-count="3"/><rect x="336" y="78" width="14" height="14" rx="2" fill="#0e4429" class="cell" data-count="2"/><rect x="352" y="78" width="14" height="14" rx="2" fill="#161b22" class="cell" data-count="0"/><rect x="368" y="78" width="14" height="14" rx="2" fill="#006d32" class="cell" data-count="9"/><rect x="384" y="78" width="14" height="14" rx="2" fill="#161b22" class="cell" data-count="0"/><rect x="400" y="78" width="14" height="14" rx="2" fill="#0e4429" class="cell" data-count="3"/><rect x="32" y="94" width="14" height="14" rx="2" fill="#006d32" class="cell" data-count="5"/><rect x="48" y="94" width="14" height="14" rx="2" fill="#39d353" class="cell" data-count="20"/><rect x="64" y="94" width="14" height="14" rx="2" fill="#006d32" class="cell" data-count="8"/><rect x="80" y="94" width="14" height="14" rx="2" fill="#161b22" class="cell" data-count="0"/><rect x="96" y="94" width="14" height="14" rx="2" fill="#161b22" class="cell" data-count="0"/><rect x="112" y="94" width="14" height="14" rx="2" fill="#161b22" class="cell" data-count="0"/><rect x="128" y="94" width="14" height="14" rx="2" fill="#161b22" class="cell" data-count="0"/><rect x="144" y="94" width="14" height="14" rx="2" fill="#161b22" class="cell" data-count="0"/><rect x="160" y="94" width="14" height="14" rx="2" fill="#006d32" class="cell" data-count="5"/><rect x="176" y="94" width="14" height="14" rx="2" fill="#006d32" class="cell" data-count="8"/><rect x="192" y="94" width="14" height="14" rx="2" fill="#161b22" class="cell" data-count="0"/><rect x="208" y="94" width="14" height="14" rx="2" fill="#161b22" class="cell" data-count="0"/><rect x="224" y="94" width="14" height="14" rx="2" fill="#161b22" class="cell" data-count="0"/><rect x="240" y="94" width="14" height="14" rx="2" fill="#006d32" class="cell" data-count="6"/><rect x="256" y="94" width="14" height="14" rx="2" fill="#161b22" class="cell" data-count="0"/><rect x="272" y="94" width="14" height="14" rx="2" fill="#39d353" class="cell" data-count="17"/><rect x="288" y="94" width="14" height="14" rx="2" fill="#161b22" class="cell" data-count="0"/><rect x="304" y="94" width="14" height="14" rx="2" fill="#161b22" class="cell" data-count="0"/><rect x="320" y="94" width="14" height="14" rx="2" fill="#0e4429" class="cell" data-count="3"/><rect x="336" y="94" width="14" height="14" rx="2" fill="#0e4429" class="cell" data-count="2"/><rect x="352" y="94" width="14" height="14" rx="2" fill="#161b22" class="cell" data-count="0"/><rect x="368" y="94" width="14" height="14" rx="2" fill="#006d32" class="cell" data-count="9"/><rect x="384" y="94" width="14" height="14" rx="2" fill="#161b22" class="cell" data-count="0"/><rect x="400" y="94" width="14" height="14" rx="2" fill="#0e4429" class="cell" data-count="3"/><rect x="32" y="110" width="14" height="14" rx="2" fill="#006d32" class="cell" data-count="5"/><rect x="48" y="110" width="14" height="14" rx="2" fill="#39d353" class="cell" data-count="20"/><rect x="64" y="110" width="14" height="14" rx="2" fill="#006d32" class="cell" data-count="8"/><rect x="80" y="110" width="14" height="14" rx="2" fill="#161b22" class="cell" data-count="0"/><rect x="96" y="110" width="14" height="14" rx="2" fill="#161b22" class="cell" data-count="0"/><rect x="112" y="110" width="14" height="14" rx="2" fill="#161b22" class="cell" data-count="0"/><rect x="128" y="110" width="14" height="14" rx="2" fill="#161b22" class="cell" data-count="0"/><rect x="144" y="110" width="14" height="14" rx="2" fill="#161b22" class="cell" data-count="0"/><rect x="160" y="110" width="14" height="14" rx="2" fill="#006d32" class="cell" data-count="5"/><rect x="176" y="110" width="14" height="14" rx="2" fill="#006d32" class="cell" data-count="8"/><rect x="192" y="110" width="14" height="14" rx="2" fill="#161b22" class="cell" data-count="0"/><rect x="208" y="110" width="14" height="14" rx="2" fill="#161b22" class="cell" data-count="0"/><rect x="224" y="110" width="14" height="14" rx="2" fill="#161b22" class="cell" data-count="0"/><rect x="240" y="110" width="14" height="14" rx="2" fill="#006d32" class="cell" data-count="6"/><rect x="256" y="110" width="14" height="14" rx="2" fill="#161b22" class="cell" data-count="0"/><rect x="272" y="110" width="14" height="14" rx="2" fill="#39d353" class="cell" data-count="17"/><rect x="288" y="110" width="14" height="14" rx="2" fill="#161b22" class="cell" data-count="0"/><rect x="304" y="110" width="14" height="14" rx="2" fill="#161b22" class="cell" data-count="0"/><rect x="320" y="110" width="14" height="14" rx="2" fill="#0e4429" class="cell" data-count="3"/><rect x="336" y="110" width="14" height="14" rx="2" fill="#0e4429" class="cell" data-count="2"/><rect x="352" y="110" width="14" height="14" rx="2" fill="#161b22" class="cell" data-count="0"/><rect x="368" y="110" width="14" height="14" rx="2" fill="#006d32" class="cell" data-count="9"/><rect x="384" y="110" width="14" height="14" rx="2" fill="#161b22" class="cell" data-count="0"/><rect x="400" y="110" width="14" height="14" rx="2" fill="#0e4429" class="cell" data-count="3"/><rect x="32" y="126" width="14" height="14" rx="2" fill="#006d32" class="cell" data-count="5"/><rect x="48" y="126" width="14" height="14" rx="2" fill="#39d353" class="cell" data-count="20"/><rect x="64" y="126" width="14" height="14" rx="2" fill="#006d32" class="cell" data-count="8"/><rect x="80" y="126" width="14" height="14" rx="2" fill="#161b22" class="cell" data-count="0"/><rect x="96" y="126" width="14" height="14" rx="2" fill="#161b22" class="cell" data-count="0"/><rect x="112" y="126" width="14" height="14" rx="2" fill="#161b22" class="cell" data-count="0"/><rect x="128" y="126" width="14" height="14" rx="2" fill="#161b22" class="cell" data-count="0"/><rect x="144" y="126" width="14" height="14" rx="2" fill="#161b22" class="cell" data-count="0"/><rect x="160" y="126" width="14" height="14" rx="2" fill="#006d32" class="cell" data-count="5"/><rect x="176" y="126" width="14" height="14" rx="2" fill="#006d32" class="cell" data-count="8"/><rect x="192" y="126" width="14" height="14" rx="2" fill="#161b22" class="cell" data-count="0"/><rect x="208" y="126" width="14" height="14" rx="2" fill="#161b22" class="cell" data-count="0"/><rect x="224" y="126" width="14" height="14" rx="2" fill="#161b22" class="cell" data-count="0"/><rect x="240" y="126" width="14" height="14" rx="2" fill="#006d32" class="cell" data-count="6"/><rect x="256" y="126" width="14" height="14" rx="2" fill="#161b22" class="cell" data-count="0"/><rect x="272" y="126" width="14" height="14" rx="2" fill="#39d353" class="cell" data-count="17"/><rect x="288" y="126" width="14" height="14" rx="2" fill="#161b22" class="cell" data-count="0"/><rect x="304" y="126" width="14" height="14" rx="2" fill="#161b22" class="cell" data-count="0"/><rect x="320" y="126" width="14" height="14" rx="2" fill="#0e4429" class="cell" data-count="3"/><rect x="336" y="126" width="14" height="14" rx="2" fill="#0e4429" class="cell" data-count="2"/><rect x="352" y="126" width="14" height="14" rx="2" fill="#161b22" class="cell" data-count="0"/><rect x="368" y="126" width="14" height="14" rx="2" fill="#006d32" class="cell" data-count="9"/><rect x="384" y="126" width="14" height="14" rx="2" fill="#161b22" class="cell" data-count="0"/><rect x="400" y="126" width="14" height="14" rx="2" fill="#0e4429" class="cell" data-count="3"/>
  <text x="256" y="158" class="lbl" dominant-baseline="middle">Less</text>
  <g transform="translate(286, 148)"><rect x="0" y="148" width="12" height="12" rx="2" fill="#161b22"/><text x="15" y="158" class="lbl">0</text><rect x="18" y="148" width="12" height="12" rx="2" fill="#006d32"/><text x="33" y="158" class="lbl">5</text><rect x="36" y="148" width="12" height="12" rx="2" fill="#26a641"/><text x="51" y="158" class="lbl">10</text><rect x="54" y="148" width="12" height="12" rx="2" fill="#39d353"/><text x="69" y="158" class="lbl">15</text><rect x="72" y="148" width="12" height="12" rx="2" fill="#39d353"/><text x="87" y="158" class="lbl">20</text></g>
  <text x="386" y="158" class="lbl" dominant-baseline="middle">More</text>
</svg>