<svg xmlns="http://www.w3.org/2000/svg" viewBox="0 0 420 170" width="100%">
<style>.t{font-size:13px;font-weight:600;fill:#e6edf3}.l{font-size:10px;fill:#8b949e}</style>
<rect width="420" height="170" fill="#0d1117"/>
<text x="4" y="20" class="t">24-Hour Commit Activity &middot; 86 total &middot; last 7 days</text>
<text x="3" y="41.0" class="l" dominant-baseline="middle" text-anchor="start">Sun</text><text x="3" y="57.0" class="l" dominant-baseline="middle" text-anchor="start">Mon</text><text x="3" y="73.0" class="l" dominant-baseline="middle" text-anchor="start">Tue</text><text x="3" y="89.0" class="l" dominant-baseline="middle" text-anchor="start">Wed</text><text x="3" y="105.0" class="l" dominant-baseline="middle" text-anchor="start">Thu</text><text x="3" y="121.0" class="l" dominant-baseline="middle" text-anchor="start">Fri</text><text x="3" y="137.0" class="l" dominant-baseline="middle" text-anchor="start">Sat</text>
<text x="36" y="24" class="l">12am</text>
<text x="128" y="24" class="l">6am</text>
<text x="224" y="24" class="l">12pm</text>
<text x="320" y="24" class="l">6pm</text>
<rect x="36" y="30" width="14" height="14" rx="2" fill="#006d32"/><rect x="52" y="30" width="14" height="14" rx="2" fill="#39d353"/><rect x="68" y="30" width="14" height="14" rx="2" fill="#006d32"/><rect x="84" y="30" width="14" height="14" rx="2" fill="#161b22"/><rect x="100" y="30" width="14" height="14" rx="2" fill="#161b22"/><rect x="116" y="30" width="14" height="14" rx="2" fill="#161b22"/><rect x="132" y="30" width="14" height="14" rx="2" fill="#161b22"/><rect x="148" y="30" width="14" height="14" rx="2" fill="#161b22"/><rect x="164" y="30" width="14" height="14" rx="2" fill="#006d32"/><rect x="180" y="30" width="14" height="14" rx="2" fill="#26a641"/><rect x="196" y="30" width="14" height="14" rx="2" fill="#161b22"/><rect x="212" y="30" width="14" height="14" rx="2" fill="#161b22"/><rect x="228" y="30" width="14" height="14" rx="2" fill="#161b22"/><rect x="244" y="30" width="14" height="14" rx="2" fill="#006d32"/><rect x="260" y="30" width="14" height="14" rx="2" fill="#161b22"/><rect x="276" y="30" width="14" height="14" rx="2" fill="#39d353"/><rect x="292" y="30" width="14" height="14" rx="2" fill="#161b22"/><rect x="308" y="30" width="14" height="14" rx="2" fill="#161b22"/><rect x="324" y="30" width="14" height="14" rx="2" fill="#0e4429"/><rect x="340" y="30" width="14" height="14" rx="2" fill="#161b22"/><rect x="356" y="30" width="14" height="14" rx="2" fill="#161b22"/><rect x="372" y="30" width="14" height="14" rx="2" fill="#006d32"/><rect x="388" y="30" width="14" height="14" rx="2" fill="#161b22"/><rect x="404" y="30" width="14" height="14" rx="2" fill="#0e4429"/><rect x="36" y="46" width="14" height="14" rx="2" fill="#006d32"/><rect x="52" y="46" width="14" height="14" rx="2" fill="#39d353"/><rect x="68" y="46" width="14" height="14" rx="2" fill="#006d32"/><rect x="84" y="46" width="14" height="14" rx="2" fill="#161b22"/><rect x="100" y="46" width="14" height="14" rx="2" fill="#161b22"/><rect x="116" y="46" width="14" height="14" rx="2" fill="#161b22"/><rect x="132" y="46" width="14" height="14" rx="2" fill="#161b22"/><rect x="148" y="46" width="14" height="14" rx="2" fill="#161b22"/><rect x="164" y="46" width="14" height="14" rx="2" fill="#006d32"/><rect x="180" y="46" width="14" height="14" rx="2" fill="#26a641"/><rect x="196" y="46" width="14" height="14" rx="2" fill="#161b22"/><rect x="212" y="46" width="14" height="14" rx="2" fill="#161b22"/><rect x="228" y="46" width="14" height="14" rx="2" fill="#161b22"/><rect x="244" y="46" width="14" height="14" rx="2" fill="#006d32"/><rect x="260" y="46" width="14" height="14" rx="2" fill="#161b22"/><rect x="276" y="46" width="14" height="14" rx="2" fill="#39d353"/><rect x="292" y="46" width="14" height="14" rx="2" fill="#161b22"/><rect x="308" y="46" width="14" height="14" rx="2" fill="#161b22"/><rect x="324" y="46" width="14" height="14" rx="2" fill="#0e4429"/><rect x="340" y="46" width="14" height="14" rx="2" fill="#161b22"/><rect x="356" y="46" width="14" height="14" rx="2" fill="#161b22"/><rect x="372" y="46" width="14" height="14" rx="2" fill="#006d32"/><rect x="388" y="46" width="14" height="14" rx="2" fill="#161b22"/><rect x="404" y="46" width="14" height="14" rx="2" fill="#0e4429"/><rect x="36" y="62" width="14" height="14" rx="2" fill="#006d32"/><rect x="52" y="62" width="14" height="14" rx="2" fill="#39d353"/><rect x="68" y="62" width="14" height="14" rx="2" fill="#006d32"/><rect x="84" y="62" width="14" height="14" rx="2" fill="#161b22"/><rect x="100" y="62" width="14" height="14" rx="2" fill="#161b22"/><rect x="116" y="62" width="14" height="14" rx="2" fill="#161b22"/><rect x="132" y="62" width="14" height="14" rx="2" fill="#161b22"/><rect x="148" y="62" width="14" height="14" rx="2" fill="#161b22"/><rect x="164" y="62" width="14" height="14" rx="2" fill="#006d32"/><rect x="180" y="62" width="14" height="14" rx="2" fill="#26a641"/><rect x="196" y="62" width="14" height="14" rx="2" fill="#161b22"/><rect x="212" y="62" width="14" height="14" rx="2" fill="#161b22"/><rect x="228" y="62" width="14" height="14" rx="2" fill="#161b22"/><rect x="244" y="62" width="14" height="14" rx="2" fill="#006d32"/><rect x="260" y="62" width="14" height="14" rx="2" fill="#161b22"/><rect x="276" y="62" width="14" height="14" rx="2" fill="#39d353"/><rect x="292" y="62" width="14" height="14" rx="2" fill="#161b22"/><rect x="308" y="62" width="14" height="14" rx="2" fill="#161b22"/><rect x="324" y="62" width="14" height="14" rx="2" fill="#0e4429"/><rect x="340" y="62" width="14" height="14" rx="2" fill="#161b22"/><rect x="356" y="62" width="14" height="14" rx="2" fill="#161b22"/><rect x="372" y="62" width="14" height="14" rx="2" fill="#006d32"/><rect x="388" y="62" width="14" height="14" rx="2" fill="#161b22"/><rect x="404" y="62" width="14" height="14" rx="2" fill="#0e4429"/><rect x="36" y="78" width="14" height="14" rx="2" fill="#006d32"/><rect x="52" y="78" width="14" height="14" rx="2" fill="#39d353"/><rect x="68" y="78" width="14" height="14" rx="2" fill="#006d32"/><rect x="84" y="78" width="14" height="14" rx="2" fill="#161b22"/><rect x="100" y="78" width="14" height="14" rx="2" fill="#161b22"/><rect x="116" y="78" width="14" height="14" rx="2" fill="#161b22"/><rect x="132" y="78" width="14" height="14" rx="2" fill="#161b22"/><rect x="148" y="78" width="14" height="14" rx="2" fill="#161b22"/><rect x="164" y="78" width="14" height="14" rx="2" fill="#006d32"/><rect x="180" y="78" width="14" height="14" rx="2" fill="#26a641"/><rect x="196" y="78" width="14" height="14" rx="2" fill="#161b22"/><rect x="212" y="78" width="14" height="14" rx="2" fill="#161b22"/><rect x="228" y="78" width="14" height="14" rx="2" fill="#161b22"/><rect x="244" y="78" width="14" height="14" rx="2" fill="#006d32"/><rect x="260" y="78" width="14" height="14" rx="2" fill="#161b22"/><rect x="276" y="78" width="14" height="14" rx="2" fill="#39d353"/><rect x="292" y="78" width="14" height="14" rx="2" fill="#161b22"/><rect x="308" y="78" width="14" height="14" rx="2" fill="#161b22"/><rect x="324" y="78" width="14" height="14" rx="2" fill="#0e4429"/><rect x="340" y="78" width="14" height="14" rx="2" fill="#161b22"/><rect x="356" y="78" width="14" height="14" rx="2" fill="#161b22"/><rect x="372" y="78" width="14" height="14" rx="2" fill="#006d32"/><rect x="388" y="78" width="14" height="14" rx="2" fill="#161b22"/><rect x="404" y="78" width="14" height="14" rx="2" fill="#0e4429"/><rect x="36" y="94" width="14" height="14" rx="2" fill="#006d32"/><rect x="52" y="94" width="14" height="14" rx="2" fill="#39d353"/><rect x="68" y="94" width="14" height="14" rx="2" fill="#006d32"/><rect x="84" y="94" width="14" height="14" rx="2" fill="#161b22"/><rect x="100" y="94" width="14" height="14" rx="2" fill="#161b22"/><rect x="116" y="94" width="14" height="14" rx="2" fill="#161b22"/><rect x="132" y="94" width="14" height="14" rx="2" fill="#161b22"/><rect x="148" y="94" width="14" height="14" rx="2" fill="#161b22"/><rect x="164" y="94" width="14" height="14" rx="2" fill="#006d32"/><rect x="180" y="94" width="14" height="14" rx="2" fill="#26a641"/><rect x="196" y="94" width="14" height="14" rx="2" fill="#161b22"/><rect x="212" y="94" width="14" height="14" rx="2" fill="#161b22"/><rect x="228" y="94" width="14" height="14" rx="2" fill="#161b22"/><rect x="244" y="94" width="14" height="14" rx="2" fill="#006d32"/><rect x="260" y="94" width="14" height="14" rx="2" fill="#161b22"/><rect x="276" y="94" width="14" height="14" rx="2" fill="#39d353"/><rect x="292" y="94" width="14" height="14" rx="2" fill="#161b22"/><rect x="308" y="94" width="14" height="14" rx="2" fill="#161b22"/><rect x="324" y="94" width="14" height="14" rx="2" fill="#0e4429"/><rect x="340" y="94" width="14" height="14" rx="2" fill="#161b22"/><rect x="356" y="94" width="14" height="14" rx="2" fill="#161b22"/><rect x="372" y="94" width="14" height="14" rx="2" fill="#006d32"/><rect x="388" y="94" width="14" height="14" rx="2" fill="#161b22"/><rect x="404" y="94" width="14" height="14" rx="2" fill="#0e4429"/><rect x="36" y="110" width="14" height="14" rx="2" fill="#006d32"/><rect x="52" y="110" width="14" height="14" rx="2" fill="#39d353"/><rect x="68" y="110" width="14" height="14" rx="2" fill="#006d32"/><rect x="84" y="110" width="14" height="14" rx="2" fill="#161b22"/><rect x="100" y="110" width="14" height="14" rx="2" fill="#161b22"/><rect x="116" y="110" width="14" height="14" rx="2" fill="#161b22"/><rect x="132" y="110" width="14" height="14" rx="2" fill="#161b22"/><rect x="148" y="110" width="14" height="14" rx="2" fill="#161b22"/><rect x="164" y="110" width="14" height="14" rx="2" fill="#006d32"/><rect x="180" y="110" width="14" height="14" rx="2" fill="#26a641"/><rect x="196" y="110" width="14" height="14" rx="2" fill="#161b22"/><rect x="212" y="110" width="14" height="14" rx="2" fill="#161b22"/><rect x="228" y="110" width="14" height="14" rx="2" fill="#161b22"/><rect x="244" y="110" width="14" height="14" rx="2" fill="#006d32"/><rect x="260" y="110" width="14" height="14" rx="2" fill="#161b22"/><rect x="276" y="110" width="14" height="14" rx="2" fill="#39d353"/><rect x="292" y="110" width="14" height="14" rx="2" fill="#161b22"/><rect x="308" y="110" width="14" height="14" rx="2" fill="#161b22"/><rect x="324" y="110" width="14" height="14" rx="2" fill="#0e4429"/><rect x="340" y="110" width="14" height="14" rx="2" fill="#161b22"/><rect x="356" y="110" width="14" height="14" rx="2" fill="#161b22"/><rect x="372" y="110" width="14" height="14" rx="2" fill="#006d32"/><rect x="388" y="110" width="14" height="14" rx="2" fill="#161b22"/><rect x="404" y="110" width="14" height="14" rx="2" fill="#0e4429"/><rect x="36" y="126" width="14" height="14" rx="2" fill="#006d32"/><rect x="52" y="126" width="14" height="14" rx="2" fill="#39d353"/><rect x="68" y="126" width="14" height="14" rx="2" fill="#006d32"/><rect x="84" y="126" width="14" height="14" rx="2" fill="#161b22"/><rect x="100" y="126" width="14" height="14" rx="2" fill="#161b22"/><rect x="116" y="126" width="14" height="14" rx="2" fill="#161b22"/><rect x="132" y="126" width="14" height="14" rx="2" fill="#161b22"/><rect x="148" y="126" width="14" height="14" rx="2" fill="#161b22"/><rect x="164" y="126" width="14" height="14" rx="2" fill="#006d32"/><rect x="180" y="126" width="14" height="14" rx="2" fill="#26a641"/><rect x="196" y="126" width="14" height="14" rx="2" fill="#161b22"/><rect x="212" y="126" width="14" height="14" rx="2" fill="#161b22"/><rect x="228" y="126" width="14" height="14" rx="2" fill="#161b22"/><rect x="244" y="126" width="14" height="14" rx="2" fill="#006d32"/><rect x="260" y="126" width="14" height="14" rx="2" fill="#161b22"/><rect x="276" y="126" width="14" height="14" rx="2" fill="#39d353"/><rect x="292" y="126" width="14" height="14" rx="2" fill="#161b22"/><rect x="308" y="126" width="14" height="14" rx="2" fill="#161b22"/><rect x="324" y="126" width="14" height="14" rx="2" fill="#0e4429"/><rect x="340" y="126" width="14" height="14" rx="2" fill="#161b22"/><rect x="356" y="126" width="14" height="14" rx="2" fill="#161b22"/><rect x="372" y="126" width="14" height="14" rx="2" fill="#006d32"/><rect x="388" y="126" width="14" height="14" rx="2" fill="#161b22"/><rect x="404" y="126" width="14" height="14" rx="2" fill="#0e4429"/>
<text x="282" y="158" class="l">Less</text>
<rect x="310" y="148" width="12" height="12" rx="2" fill="#161b22"/><text x="316" y="158" class="l" text-anchor="middle">0</text><rect x="328" y="148" width="12" height="12" rx="2" fill="#006d32"/><text x="334" y="158" class="l" text-anchor="middle">5</text><rect x="346" y="148" width="12" height="12" rx="2" fill="#26a641"/><text x="352" y="158" class="l" text-anchor="middle">10</text><rect x="364" y="148" width="12" height="12" rx="2" fill="#39d353"/><text x="370" y="158" class="l" text-anchor="middle">15</text><rect x="382" y="148" width="12" height="12" rx="2" fill="#39d353"/><text x="388" y="158" class="l" text-anchor="middle">20</text>
<text x="400" y="158" class="l">More</text>
</svg>