<?xml version="1.0" encoding="UTF-8"?>
<svg xmlns="http://www.w3.org/2000/svg" viewBox="0 0 664 259" width="100%">
<rect width="100%" height="100%" fill="#0d1117"/>
<text x="4" y="18" font-size="13" font-weight="600" fill="#c9d1d9" font-family="sans-serif">Daily commits by hour</text>
<text x="4" y="32" font-size="11" fill="#8b949e" font-family="sans-serif">100 commits · last 7 days</text>
<text x="30" y="55" font-size="12" text-anchor="end" fill="#8b949e" font-family="sans-serif">Sun</text>
<text x="30" y="80" font-size="12" text-anchor="end" fill="#8b949e" font-family="sans-serif">Mon</text>
<text x="30" y="105" font-size="12" text-anchor="end" fill="#8b949e" font-family="sans-serif">Tue</text>
<text x="30" y="130" font-size="12" text-anchor="end" fill="#8b949e" font-family="sans-serif">Wed</text>
<text x="30" y="155" font-size="12" text-anchor="end" fill="#8b949e" font-family="sans-serif">Thu</text>
<text x="30" y="180" font-size="12" text-anchor="end" fill="#8b949e" font-family="sans-serif">Fri</text>
<text x="30" y="205" font-size="12" text-anchor="end" fill="#8b949e" font-family="sans-serif">Sat</text>
<text x="54" y="243" font-size="11" text-anchor="middle" fill="#8b949e" font-family="sans-serif">0:00</text>
<text x="204" y="243" font-size="11" text-anchor="middle" fill="#8b949e" font-family="sans-serif">6:00</text>
<text x="354" y="243" font-size="11" text-anchor="middle" fill="#8b949e" font-family="sans-serif">12:00</text>
<text x="504" y="243" font-size="11" text-anchor="middle" fill="#8b949e" font-family="sans-serif">18:00</text>
<rect x="44" y="40" width="20" height="20" rx="3" fill="#161b22"/>
<rect x="69" y="40" width="20" height="20" rx="3" fill="#161b22"/>
<rect x="94" y="40" width="20" height="20" rx="3" fill="#006d32"/>
<rect x="119" y="40" width="20" height="20" rx="3" fill="#161b22"/>
<rect x="144" y="40" width="20" height="20" rx="3" fill="#161b22"/>
<rect x="169" y="40" width="20" height="20" rx="3" fill="#161b22"/>
<rect x="194" y="40" width="20" height="20" rx="3" fill="#161b22"/>
<rect x="219" y="40" width="20" height="20" rx="3" fill="#161b22"/>
<rect x="244" y="40" width="20" height="20" rx="3" fill="#161b22"/>
<rect x="269" y="40" width="20" height="20" rx="3" fill="#161b22"/>
<rect x="294" y="40" width="20" height="20" rx="3" fill="#161b22"/>
<rect x="319" y="40" width="20" height="20" rx="3" fill="#161b22"/>
<rect x="344" y="40" width="20" height="20" rx="3" fill="#161b22"/>
<rect x="369" y="40" width="20" height="20" rx="3" fill="#0e4429"/>
<rect x="394" y="40" width="20" height="20" rx="3" fill="#161b22"/>
<rect x="419" y="40" width="20" height="20" rx="3" fill="#161b22"/>
<rect x="444" y="40" width="20" height="20" rx="3" fill="#161b22"/>
<rect x="469" y="40" width="20" height="20" rx="3" fill="#161b22"/>
<rect x="494" y="40" width="20" height="20" rx="3" fill="#161b22"/>
<rect x="519" y="40" width="20" height="20" rx="3" fill="#161b22"/>
<rect x="544" y="40" width="20" height="20" rx="3" fill="#161b22"/>
<rect x="569" y="40" width="20" height="20" rx="3" fill="#161b22"/>
<rect x="594" y="40" width="20" height="20" rx="3" fill="#161b22"/>
<rect x="619" y="40" width="20" height="20" rx="3" fill="#161b22"/>
<rect x="44" y="65" width="20" height="20" rx="3" fill="#161b22"/>
<rect x="69" y="65" width="20" height="20" rx="3" fill="#161b22"/>
<rect x="94" y="65" width="20" height="20" rx="3" fill="#161b22"/>
<rect x="119" y="65" width="20" height="20" rx="3" fill="#161b22"/>
<rect x="144" y="65" width="20" height="20" rx="3" fill="#161b22"/>
<rect x="169" y="65" width="20" height="20" rx="3" fill="#161b22"/>
<rect x="194" y="65" width="20" height="20" rx="3" fill="#161b22"/>
<rect x="219" y="65" width="20" height="20" rx="3" fill="#161b22"/>
<rect x="244" y="65" width="20" height="20" rx="3" fill="#161b22"/>
<rect x="269" y="65" width="20" height="20" rx="3" fill="#161b22"/>
<rect x="294" y="65" width="20" height="20" rx="3" fill="#161b22"/>
<rect x="319" y="65" width="20" height="20" rx="3" fill="#161b22"/>
<rect x="344" y="65" width="20" height="20" rx="3" fill="#161b22"/>
<rect x="369" y="65" width="20" height="20" rx="3" fill="#0e4429"/>
<rect x="394" y="65" width="20" height="20" rx="3" fill="#161b22"/>
<rect x="419" y="65" width="20" height="20" rx="3" fill="#0e4429"/>
<rect x="444" y="65" width="20" height="20" rx="3" fill="#161b22"/>
<rect x="469" y="65" width="20" height="20" rx="3" fill="#161b22"/>
<rect x="494" y="65" width="20" height="20" rx="3" fill="#161b22"/>
<rect x="519" y="65" width="20" height="20" rx="3" fill="#161b22"/>
<rect x="544" y="65" width="20" height="20" rx="3" fill="#161b22"/>
<rect x="569" y="65" width="20" height="20" rx="3" fill="#0e4429"/>
<rect x="594" y="65" width="20" height="20" rx="3" fill="#161b22"/>
<rect x="619" y="65" width="20" height="20" rx="3" fill="#161b22"/>
<rect x="44" y="90" width="20" height="20" rx="3" fill="#161b22"/>
<rect x="69" y="90" width="20" height="20" rx="3" fill="#161b22"/>
<rect x="94" y="90" width="20" height="20" rx="3" fill="#161b22"/>
<rect x="119" y="90" width="20" height="20" rx="3" fill="#161b22"/>
<rect x="144" y="90" width="20" height="20" rx="3" fill="#161b22"/>
<rect x="169" y="90" width="20" height="20" rx="3" fill="#161b22"/>
<rect x="194" y="90" width="20" height="20" rx="3" fill="#161b22"/>
<rect x="219" y="90" width="20" height="20" rx="3" fill="#161b22"/>
<rect x="244" y="90" width="20" height="20" rx="3" fill="#161b22"/>
<rect x="269" y="90" width="20" height="20" rx="3" fill="#161b22"/>
<rect x="294" y="90" width="20" height="20" rx="3" fill="#161b22"/>
<rect x="319" y="90" width="20" height="20" rx="3" fill="#161b22"/>
<rect x="344" y="90" width="20" height="20" rx="3" fill="#161b22"/>
<rect x="369" y="90" width="20" height="20" rx="3" fill="#0e4429"/>
<rect x="394" y="90" width="20" height="20" rx="3" fill="#161b22"/>
<rect x="419" y="90" width="20" height="20" rx="3" fill="#0e4429"/>
<rect x="444" y="90" width="20" height="20" rx="3" fill="#161b22"/>
<rect x="469" y="90" width="20" height="20" rx="3" fill="#161b22"/>
<rect x="494" y="90" width="20" height="20" rx="3" fill="#161b22"/>
<rect x="519" y="90" width="20" height="20" rx="3" fill="#161b22"/>
<rect x="544" y="90" width="20" height="20" rx="3" fill="#161b22"/>
<rect x="569" y="90" width="20" height="20" rx="3" fill="#0e4429"/>
<rect x="594" y="90" width="20" height="20" rx="3" fill="#161b22"/>
<rect x="619" y="90" width="20" height="20" rx="3" fill="#161b22"/>
<rect x="44" y="115" width="20" height="20" rx="3" fill="#161b22"/>
<rect x="69" y="115" width="20" height="20" rx="3" fill="#161b22"/>
<rect x="94" y="115" width="20" height="20" rx="3" fill="#161b22"/>
<rect x="119" y="115" width="20" height="20" rx="3" fill="#161b22"/>
<rect x="144" y="115" width="20" height="20" rx="3" fill="#161b22"/>
<rect x="169" y="115" width="20" height="20" rx="3" fill="#161b22"/>
<rect x="194" y="115" width="20" height="20" rx="3" fill="#161b22"/>
<rect x="219" y="115" width="20" height="20" rx="3" fill="#161b22"/>
<rect x="244" y="115" width="20" height="20" rx="3" fill="#161b22"/>
<rect x="269" y="115" width="20" height="20" rx="3" fill="#161b22"/>
<rect x="294" y="115" width="20" height="20" rx="3" fill="#161b22"/>
<rect x="319" y="115" width="20" height="20" rx="3" fill="#161b22"/>
<rect x="344" y="115" width="20" height="20" rx="3" fill="#161b22"/>
<rect x="369" y="115" width="20" height="20" rx="3" fill="#0e4429"/>
<rect x="394" y="115" width="20" height="20" rx="3" fill="#161b22"/>
<rect x="419" y="115" width="20" height="20" rx="3" fill="#0e4429"/>
<rect x="444" y="115" width="20" height="20" rx="3" fill="#161b22"/>
<rect x="469" y="115" width="20" height="20" rx="3" fill="#161b22"/>
<rect x="494" y="115" width="20" height="20" rx="3" fill="#161b22"/>
<rect x="519" y="115" width="20" height="20" rx="3" fill="#161b22"/>
<rect x="544" y="115" width="20" height="20" rx="3" fill="#161b22"/>
<rect x="569" y="115" width="20" height="20" rx="3" fill="#0e4429"/>
<rect x="594" y="115" width="20" height="20" rx="3" fill="#161b22"/>
<rect x="619" y="115" width="20" height="20" rx="3" fill="#0e4429"/>
<rect x="44" y="140" width="20" height="20" rx="3" fill="#006d32"/>
<rect x="69" y="140" width="20" height="20" rx="3" fill="#161b22"/>
<rect x="94" y="140" width="20" height="20" rx="3" fill="#161b22"/>
<rect x="119" y="140" width="20" height="20" rx="3" fill="#161b22"/>
<rect x="144" y="140" width="20" height="20" rx="3" fill="#161b22"/>
<rect x="169" y="140" width="20" height="20" rx="3" fill="#161b22"/>
<rect x="194" y="140" width="20" height="20" rx="3" fill="#161b22"/>
<rect x="219" y="140" width="20" height="20" rx="3" fill="#161b22"/>
<rect x="244" y="140" width="20" height="20" rx="3" fill="#161b22"/>
<rect x="269" y="140" width="20" height="20" rx="3" fill="#161b22"/>
<rect x="294" y="140" width="20" height="20" rx="3" fill="#161b22"/>
<rect x="319" y="140" width="20" height="20" rx="3" fill="#161b22"/>
<rect x="344" y="140" width="20" height="20" rx="3" fill="#161b22"/>
<rect x="369" y="140" width="20" height="20" rx="3" fill="#0e4429"/>
<rect x="394" y="140" width="20" height="20" rx="3" fill="#161b22"/>
<rect x="419" y="140" width="20" height="20" rx="3" fill="#161b22"/>
<rect x="444" y="140" width="20" height="20" rx="3" fill="#161b22"/>
<rect x="469" y="140" width="20" height="20" rx="3" fill="#161b22"/>
<rect x="494" y="140" width="20" height="20" rx="3" fill="#006d32"/>
<rect x="519" y="140" width="20" height="20" rx="3" fill="#161b22"/>
<rect x="544" y="140" width="20" height="20" rx="3" fill="#161b22"/>
<rect x="569" y="140" width="20" height="20" rx="3" fill="#161b22"/>
<rect x="594" y="140" width="20" height="20" rx="3" fill="#161b22"/>
<rect x="619" y="140" width="20" height="20" rx="3" fill="#161b22"/>
<rect x="44" y="165" width="20" height="20" rx="3" fill="#161b22"/>
<rect x="69" y="165" width="20" height="20" rx="3" fill="#39d353"/>
<rect x="94" y="165" width="20" height="20" rx="3" fill="#161b22"/>
<rect x="119" y="165" width="20" height="20" rx="3" fill="#161b22"/>
<rect x="144" y="165" width="20" height="20" rx="3" fill="#161b22"/>
<rect x="169" y="165" width="20" height="20" rx="3" fill="#161b22"/>
<rect x="194" y="165" width="20" height="20" rx="3" fill="#161b22"/>
<rect x="219" y="165" width="20" height="20" rx="3" fill="#161b22"/>
<rect x="244" y="165" width="20" height="20" rx="3" fill="#0e4429"/>
<rect x="269" y="165" width="20" height="20" rx="3" fill="#26a641"/>
<rect x="294" y="165" width="20" height="20" rx="3" fill="#161b22"/>
<rect x="319" y="165" width="20" height="20" rx="3" fill="#161b22"/>
<rect x="344" y="165" width="20" height="20" rx="3" fill="#161b22"/>
<rect x="369" y="165" width="20" height="20" rx="3" fill="#161b22"/>
<rect x="394" y="165" width="20" height="20" rx="3" fill="#161b22"/>
<rect x="419" y="165" width="20" height="20" rx="3" fill="#161b22"/>
<rect x="444" y="165" width="20" height="20" rx="3" fill="#161b22"/>
<rect x="469" y="165" width="20" height="20" rx="3" fill="#161b22"/>
<rect x="494" y="165" width="20" height="20" rx="3" fill="#161b22"/>
<rect x="519" y="165" width="20" height="20" rx="3" fill="#161b22"/>
<rect x="544" y="165" width="20" height="20" rx="3" fill="#161b22"/>
<rect x="569" y="165" width="20" height="20" rx="3" fill="#161b22"/>
<rect x="594" y="165" width="20" height="20" rx="3" fill="#161b22"/>
<rect x="619" y="165" width="20" height="20" rx="3" fill="#161b22"/>
<rect x="44" y="190" width="20" height="20" rx="3" fill="#161b22"/>
<rect x="69" y="190" width="20" height="20" rx="3" fill="#161b22"/>
<rect x="94" y="190" width="20" height="20" rx="3" fill="#161b22"/>
<rect x="119" y="190" width="20" height="20" rx="3" fill="#161b22"/>
<rect x="144" y="190" width="20" height="20" rx="3" fill="#161b22"/>
<rect x="169" y="190" width="20" height="20" rx="3" fill="#161b22"/>
<rect x="194" y="190" width="20" height="20" rx="3" fill="#161b22"/>
<rect x="219" y="190" width="20" height="20" rx="3" fill="#161b22"/>
<rect x="244" y="190" width="20" height="20" rx="3" fill="#161b22"/>
<rect x="269" y="190" width="20" height="20" rx="3" fill="#161b22"/>
<rect x="294" y="190" width="20" height="20" rx="3" fill="#161b22"/>
<rect x="319" y="190" width="20" height="20" rx="3" fill="#161b22"/>
<rect x="344" y="190" width="20" height="20" rx="3" fill="#161b22"/>
<rect x="369" y="190" width="20" height="20" rx="3" fill="#161b22"/>
<rect x="394" y="190" width="20" height="20" rx="3" fill="#161b22"/>
<rect x="419" y="190" width="20" height="20" rx="3" fill="#0e4429"/>
<rect x="444" y="190" width="20" height="20" rx="3" fill="#161b22"/>
<rect x="469" y="190" width="20" height="20" rx="3" fill="#161b22"/>
<rect x="494" y="190" width="20" height="20" rx="3" fill="#161b22"/>
<rect x="519" y="190" width="20" height="20" rx="3" fill="#161b22"/>
<rect x="544" y="190" width="20" height="20" rx="3" fill="#161b22"/>
<rect x="569" y="190" width="20" height="20" rx="3" fill="#0e4429"/>
<rect x="594" y="190" width="20" height="20" rx="3" fill="#161b22"/>
<rect x="619" y="190" width="20" height="20" rx="3" fill="#161b22"/>
<text x="560" y="241" font-size="11" fill="#8b949e" font-family="sans-serif">Less</text>
<rect x="594" y="231" width="12" height="12" rx="2" fill="#161b22"/>
<rect x="610" y="231" width="12" height="12" rx="2" fill="#0e4429"/>
<rect x="626" y="231" width="12" height="12" rx="2" fill="#006d32"/>
<rect x="642" y="231" width="12" height="12" rx="2" fill="#26a641"/>
<rect x="658" y="231" width="12" height="12" rx="2" fill="#39d353"/>
<text x="678" y="241" font-size="11" fill="#8b949e" font-family="sans-serif">More</text>
</svg>