<?xml version="1.0" encoding="UTF-8"?>
<svg xmlns="http://www.w3.org/2000/svg" width="1200" height="540" viewBox="0 0 1200 540" style="background:#0d1117">
<text x="10" y="28" fill="#e6edf3" font-size="20" font-weight="bold" font-family="-apple-system,BlinkMacSystemFont,Arial,sans-serif">Daily Commits – 100 total, last 6 weeks</text>
<text x="10" y="50" fill="#8b949e" font-size="13" font-family="-apple-system,BlinkMacSystemFont,Arial,sans-serif">github.com/Retsumdk</text>
<g transform="translate(72,80)">
<text x="23.00" y="-12" fill="#8b949e" font-size="12" text-anchor="middle" font-family="-apple-system,sans-serif">00h</text>
<text x="161.00" y="-12" fill="#8b949e" font-size="12" text-anchor="middle" font-family="-apple-system,sans-serif">03h</text>
<text x="299.00" y="-12" fill="#8b949e" font-size="12" text-anchor="middle" font-family="-apple-system,sans-serif">06h</text>
<text x="437.00" y="-12" fill="#8b949e" font-size="12" text-anchor="middle" font-family="-apple-system,sans-serif">09h</text>
<text x="575.00" y="-12" fill="#8b949e" font-size="12" text-anchor="middle" font-family="-apple-system,sans-serif">12h</text>
<text x="713.00" y="-12" fill="#8b949e" font-size="12" text-anchor="middle" font-family="-apple-system,sans-serif">15h</text>
<text x="851.00" y="-12" fill="#8b949e" font-size="12" text-anchor="middle" font-family="-apple-system,sans-serif">18h</text>
<text x="989.00" y="-12" fill="#8b949e" font-size="12" text-anchor="middle" font-family="-apple-system,sans-serif">21h</text>
<text x="-12" y="32.86" fill="#8b949e" font-size="13" text-anchor="end" font-family="-apple-system,sans-serif">Mon</text>
<text x="-12" y="90.57" fill="#8b949e" font-size="13" text-anchor="end" font-family="-apple-system,sans-serif">Tue</text>
<text x="-12" y="148.29" fill="#8b949e" font-size="13" text-anchor="end" font-family="-apple-system,sans-serif">Wed</text>
<text x="-12" y="206.00" fill="#8b949e" font-size="13" text-anchor="end" font-family="-apple-system,sans-serif">Thu</text>
<text x="-12" y="263.71" fill="#8b949e" font-size="13" text-anchor="end" font-family="-apple-system,sans-serif">Fri</text>
<text x="-12" y="321.43" fill="#8b949e" font-size="13" text-anchor="end" font-family="-apple-system,sans-serif">Sat</text>
<text x="-12" y="379.14" fill="#8b949e" font-size="13" text-anchor="end" font-family="-apple-system,sans-serif">Sun</text>
<rect x="1.50" y="1.50" width="43.00" height="54.71" fill="#161b22" rx="3"/>
<rect x="47.50" y="1.50" width="43.00" height="54.71" fill="#161b22" rx="3"/>
<rect x="93.50" y="1.50" width="43.00" height="54.71" fill="#1a7f32" rx="3"/>
<text x="115.00" y="32.86" fill="#e6edf3" font-size="11" text-anchor="middle" font-family="-apple-system,sans-serif">2</text>
<rect x="139.50" y="1.50" width="43.00" height="54.71" fill="#161b22" rx="3"/>
<rect x="185.50" y="1.50" width="43.00" height="54.71" fill="#161b22" rx="3"/>
<rect x="231.50" y="1.50" width="43.00" height="54.71" fill="#161b22" rx="3"/>
<rect x="277.50" y="1.50" width="43.00" height="54.71" fill="#161b22" rx="3"/>
<rect x="323.50" y="1.50" width="43.00" height="54.71" fill="#161b22" rx="3"/>
<rect x="369.50" y="1.50" width="43.00" height="54.71" fill="#161b22" rx="3"/>
<rect x="415.50" y="1.50" width="43.00" height="54.71" fill="#161b22" rx="3"/>
<rect x="461.50" y="1.50" width="43.00" height="54.71" fill="#161b22" rx="3"/>
<rect x="507.50" y="1.50" width="43.00" height="54.71" fill="#161b22" rx="3"/>
<rect x="553.50" y="1.50" width="43.00" height="54.71" fill="#161b22" rx="3"/>
<rect x="599.50" y="1.50" width="43.00" height="54.71" fill="#1a7f32" rx="3"/>
<text x="621.00" y="32.86" fill="#e6edf3" font-size="11" text-anchor="middle" font-family="-apple-system,sans-serif">3</text>
<rect x="645.50" y="1.50" width="43.00" height="54.71" fill="#161b22" rx="3"/>
<rect x="691.50" y="1.50" width="43.00" height="54.71" fill="#161b22" rx="3"/>
<rect x="737.50" y="1.50" width="43.00" height="54.71" fill="#161b22" rx="3"/>
<rect x="783.50" y="1.50" width="43.00" height="54.71" fill="#161b22" rx="3"/>
<rect x="829.50" y="1.50" width="43.00" height="54.71" fill="#161b22" rx="3"/>
<rect x="875.50" y="1.50" width="43.00" height="54.71" fill="#161b22" rx="3"/>
<rect x="921.50" y="1.50" width="43.00" height="54.71" fill="#161b22" rx="3"/>
<rect x="967.50" y="1.50" width="43.00" height="54.71" fill="#161b22" rx="3"/>
<rect x="1013.50" y="1.50" width="43.00" height="54.71" fill="#161b22" rx="3"/>
<rect x="1059.50" y="1.50" width="43.00" height="54.71" fill="#161b22" rx="3"/>
<rect x="1.50" y="59.21" width="43.00" height="54.71" fill="#161b22" rx="3"/>
<rect x="47.50" y="59.21" width="43.00" height="54.71" fill="#161b22" rx="3"/>
<rect x="93.50" y="59.21" width="43.00" height="54.71" fill="#161b22" rx="3"/>
<rect x="139.50" y="59.21" width="43.00" height="54.71" fill="#161b22" rx="3"/>
<rect x="185.50" y="59.21" width="43.00" height="54.71" fill="#161b22" rx="3"/>
<rect x="231.50" y="59.21" width="43.00" height="54.71" fill="#161b22" rx="3"/>
<rect x="277.50" y="59.21" width="43.00" height="54.71" fill="#161b22" rx="3"/>
<rect x="323.50" y="59.21" width="43.00" height="54.71" fill="#161b22" rx="3"/>
<rect x="369.50" y="59.21" width="43.00" height="54.71" fill="#161b22" rx="3"/>
<rect x="415.50" y="59.21" width="43.00" height="54.71" fill="#161b22" rx="3"/>
<rect x="461.50" y="59.21" width="43.00" height="54.71" fill="#161b22" rx="3"/>
<rect x="507.50" y="59.21" width="43.00" height="54.71" fill="#161b22" rx="3"/>
<rect x="553.50" y="59.21" width="43.00" height="54.71" fill="#161b22" rx="3"/>
<rect x="599.50" y="59.21" width="43.00" height="54.71" fill="#1a7f32" rx="3"/>
<text x="621.00" y="90.57" fill="#e6edf3" font-size="11" text-anchor="middle" font-family="-apple-system,sans-serif">2</text>
<rect x="645.50" y="59.21" width="43.00" height="54.71" fill="#161b22" rx="3"/>
<rect x="691.50" y="59.21" width="43.00" height="54.71" fill="#1a7f32" rx="3"/>
<text x="713.00" y="90.57" fill="#e6edf3" font-size="11" text-anchor="middle" font-family="-apple-system,sans-serif">5</text>
<rect x="737.50" y="59.21" width="43.00" height="54.71" fill="#161b22" rx="3"/>
<rect x="783.50" y="59.21" width="43.00" height="54.71" fill="#161b22" rx="3"/>
<rect x="829.50" y="59.21" width="43.00" height="54.71" fill="#161b22" rx="3"/>
<rect x="875.50" y="59.21" width="43.00" height="54.71" fill="#161b22" rx="3"/>
<rect x="921.50" y="59.21" width="43.00" height="54.71" fill="#161b22" rx="3"/>
<rect x="967.50" y="59.21" width="43.00" height="54.71" fill="#1a7f32" rx="3"/>
<text x="989.00" y="90.57" fill="#e6edf3" font-size="11" text-anchor="middle" font-family="-apple-system,sans-serif">3</text>
<rect x="1013.50" y="59.21" width="43.00" height="54.71" fill="#161b22" rx="3"/>
<rect x="1059.50" y="59.21" width="43.00" height="54.71" fill="#161b22" rx="3"/>
<rect x="1.50" y="116.93" width="43.00" height="54.71" fill="#161b22" rx="3"/>
<rect x="47.50" y="116.93" width="43.00" height="54.71" fill="#161b22" rx="3"/>
<rect x="93.50" y="116.93" width="43.00" height="54.71" fill="#161b22" rx="3"/>
<rect x="139.50" y="116.93" width="43.00" height="54.71" fill="#161b22" rx="3"/>
<rect x="185.50" y="116.93" width="43.00" height="54.71" fill="#161b22" rx="3"/>
<rect x="231.50" y="116.93" width="43.00" height="54.71" fill="#161b22" rx="3"/>
<rect x="277.50" y="116.93" width="43.00" height="54.71" fill="#161b22" rx="3"/>
<rect x="323.50" y="116.93" width="43.00" height="54.71" fill="#161b22" rx="3"/>
<rect x="369.50" y="116.93" width="43.00" height="54.71" fill="#161b22" rx="3"/>
<rect x="415.50" y="116.93" width="43.00" height="54.71" fill="#161b22" rx="3"/>
<rect x="461.50" y="116.93" width="43.00" height="54.71" fill="#161b22" rx="3"/>
<rect x="507.50" y="116.93" width="43.00" height="54.71" fill="#161b22" rx="3"/>
<rect x="553.50" y="116.93" width="43.00" height="54.71" fill="#161b22" rx="3"/>
<rect x="599.50" y="116.93" width="43.00" height="54.71" fill="#1a7f32" rx="3"/>
<text x="621.00" y="148.29" fill="#e6edf3" font-size="11" text-anchor="middle" font-family="-apple-system,sans-serif">2</text>
<rect x="645.50" y="116.93" width="43.00" height="54.71" fill="#161b22" rx="3"/>
<rect x="691.50" y="116.93" width="43.00" height="54.71" fill="#1a7f32" rx="3"/>
<text x="713.00" y="148.29" fill="#e6edf3" font-size="11" text-anchor="middle" font-family="-apple-system,sans-serif">5</text>
<rect x="737.50" y="116.93" width="43.00" height="54.71" fill="#161b22" rx="3"/>
<rect x="783.50" y="116.93" width="43.00" height="54.71" fill="#161b22" rx="3"/>
<rect x="829.50" y="116.93" width="43.00" height="54.71" fill="#161b22" rx="3"/>
<rect x="875.50" y="116.93" width="43.00" height="54.71" fill="#161b22" rx="3"/>
<rect x="921.50" y="116.93" width="43.00" height="54.71" fill="#161b22" rx="3"/>
<rect x="967.50" y="116.93" width="43.00" height="54.71" fill="#1a7f32" rx="3"/>
<text x="989.00" y="148.29" fill="#e6edf3" font-size="11" text-anchor="middle" font-family="-apple-system,sans-serif">1</text>
<rect x="1013.50" y="116.93" width="43.00" height="54.71" fill="#161b22" rx="3"/>
<rect x="1059.50" y="116.93" width="43.00" height="54.71" fill="#161b22" rx="3"/>
<rect x="1.50" y="174.64" width="43.00" height="54.71" fill="#161b22" rx="3"/>
<rect x="47.50" y="174.64" width="43.00" height="54.71" fill="#161b22" rx="3"/>
<rect x="93.50" y="174.64" width="43.00" height="54.71" fill="#161b22" rx="3"/>
<rect x="139.50" y="174.64" width="43.00" height="54.71" fill="#161b22" rx="3"/>
<rect x="185.50" y="174.64" width="43.00" height="54.71" fill="#161b22" rx="3"/>
<rect x="231.50" y="174.64" width="43.00" height="54.71" fill="#161b22" rx="3"/>
<rect x="277.50" y="174.64" width="43.00" height="54.71" fill="#161b22" rx="3"/>
<rect x="323.50" y="174.64" width="43.00" height="54.71" fill="#161b22" rx="3"/>
<rect x="369.50" y="174.64" width="43.00" height="54.71" fill="#161b22" rx="3"/>
<rect x="415.50" y="174.64" width="43.00" height="54.71" fill="#161b22" rx="3"/>
<rect x="461.50" y="174.64" width="43.00" height="54.71" fill="#161b22" rx="3"/>
<rect x="507.50" y="174.64" width="43.00" height="54.71" fill="#161b22" rx="3"/>
<rect x="553.50" y="174.64" width="43.00" height="54.71" fill="#161b22" rx="3"/>
<rect x="599.50" y="174.64" width="43.00" height="54.71" fill="#1a7f32" rx="3"/>
<text x="621.00" y="206.00" fill="#e6edf3" font-size="11" text-anchor="middle" font-family="-apple-system,sans-serif">2</text>
<rect x="645.50" y="174.64" width="43.00" height="54.71" fill="#161b22" rx="3"/>
<rect x="691.50" y="174.64" width="43.00" height="54.71" fill="#1a7f32" rx="3"/>
<text x="713.00" y="206.00" fill="#e6edf3" font-size="11" text-anchor="middle" font-family="-apple-system,sans-serif">4</text>
<rect x="737.50" y="174.64" width="43.00" height="54.71" fill="#161b22" rx="3"/>
<rect x="783.50" y="174.64" width="43.00" height="54.71" fill="#161b22" rx="3"/>
<rect x="829.50" y="174.64" width="43.00" height="54.71" fill="#161b22" rx="3"/>
<rect x="875.50" y="174.64" width="43.00" height="54.71" fill="#161b22" rx="3"/>
<rect x="921.50" y="174.64" width="43.00" height="54.71" fill="#161b22" rx="3"/>
<rect x="967.50" y="174.64" width="43.00" height="54.71" fill="#1a7f32" rx="3"/>
<text x="989.00" y="206.00" fill="#e6edf3" font-size="11" text-anchor="middle" font-family="-apple-system,sans-serif">1</text>
<rect x="1013.50" y="174.64" width="43.00" height="54.71" fill="#161b22" rx="3"/>
<rect x="1059.50" y="174.64" width="43.00" height="54.71" fill="#1a7f32" rx="3"/>
<text x="1081.00" y="206.00" fill="#e6edf3" font-size="11" text-anchor="middle" font-family="-apple-system,sans-serif">3</text>
<rect x="1.50" y="232.36" width="43.00" height="54.71" fill="#1a7f32" rx="3"/>
<text x="23.00" y="263.71" fill="#e6edf3" font-size="11" text-anchor="middle" font-family="-apple-system,sans-serif">6</text>
<rect x="47.50" y="232.36" width="43.00" height="54.71" fill="#161b22" rx="3"/>
<rect x="93.50" y="232.36" width="43.00" height="54.71" fill="#161b22" rx="3"/>
<rect x="139.50" y="232.36" width="43.00" height="54.71" fill="#161b22" rx="3"/>
<rect x="185.50" y="232.36" width="43.00" height="54.71" fill="#161b22" rx="3"/>
<rect x="231.50" y="232.36" width="43.00" height="54.71" fill="#161b22" rx="3"/>
<rect x="277.50" y="232.36" width="43.00" height="54.71" fill="#161b22" rx="3"/>
<rect x="323.50" y="232.36" width="43.00" height="54.71" fill="#161b22" rx="3"/>
<rect x="369.50" y="232.36" width="43.00" height="54.71" fill="#161b22" rx="3"/>
<rect x="415.50" y="232.36" width="43.00" height="54.71" fill="#161b22" rx="3"/>
<rect x="461.50" y="232.36" width="43.00" height="54.71" fill="#161b22" rx="3"/>
<rect x="507.50" y="232.36" width="43.00" height="54.71" fill="#161b22" rx="3"/>
<rect x="553.50" y="232.36" width="43.00" height="54.71" fill="#161b22" rx="3"/>
<rect x="599.50" y="232.36" width="43.00" height="54.71" fill="#1a7f32" rx="3"/>
<text x="621.00" y="263.71" fill="#e6edf3" font-size="11" text-anchor="middle" font-family="-apple-system,sans-serif">2</text>
<rect x="645.50" y="232.36" width="43.00" height="54.71" fill="#161b22" rx="3"/>
<rect x="691.50" y="232.36" width="43.00" height="54.71" fill="#161b22" rx="3"/>
<rect x="737.50" y="232.36" width="43.00" height="54.71" fill="#161b22" rx="3"/>
<rect x="783.50" y="232.36" width="43.00" height="54.71" fill="#161b22" rx="3"/>
<rect x="829.50" y="232.36" width="43.00" height="54.71" fill="#1a7f32" rx="3"/>
<text x="851.00" y="263.71" fill="#e6edf3" font-size="11" text-anchor="middle" font-family="-apple-system,sans-serif">6</text>
<rect x="875.50" y="232.36" width="43.00" height="54.71" fill="#161b22" rx="3"/>
<rect x="921.50" y="232.36" width="43.00" height="54.71" fill="#161b22" rx="3"/>
<rect x="967.50" y="232.36" width="43.00" height="54.71" fill="#161b22" rx="3"/>
<rect x="1013.50" y="232.36" width="43.00" height="54.71" fill="#161b22" rx="3"/>
<rect x="1059.50" y="232.36" width="43.00" height="54.71" fill="#161b22" rx="3"/>
<rect x="1.50" y="290.07" width="43.00" height="54.71" fill="#161b22" rx="3"/>
<rect x="47.50" y="290.07" width="43.00" height="54.71" fill="#1a7f32" rx="3"/>
<text x="69.00" y="321.43" fill="#0d1117" font-size="11" text-anchor="middle" font-family="-apple-system,sans-serif">23</text>
<rect x="93.50" y="290.07" width="43.00" height="54.71" fill="#161b22" rx="3"/>
<rect x="139.50" y="290.07" width="43.00" height="54.71" fill="#161b22" rx="3"/>
<rect x="185.50" y="290.07" width="43.00" height="54.71" fill="#161b22" rx="3"/>
<rect x="231.50" y="290.07" width="43.00" height="54.71" fill="#161b22" rx="3"/>
<rect x="277.50" y="290.07" width="43.00" height="54.71" fill="#161b22" rx="3"/>
<rect x="323.50" y="290.07" width="43.00" height="54.71" fill="#161b22" rx="3"/>
<rect x="369.50" y="290.07" width="43.00" height="54.71" fill="#1a7f32" rx="3"/>
<text x="391.00" y="321.43" fill="#e6edf3" font-size="11" text-anchor="middle" font-family="-apple-system,sans-serif">5</text>
<rect x="415.50" y="290.07" width="43.00" height="54.71" fill="#1a7f32" rx="3"/>
<text x="437.00" y="321.43" fill="#0d1117" font-size="11" text-anchor="middle" font-family="-apple-system,sans-serif">24</text>
<rect x="461.50" y="290.07" width="43.00" height="54.71" fill="#1a7f32" rx="3"/>
<text x="483.00" y="321.43" fill="#e6edf3" font-size="11" text-anchor="middle" font-family="-apple-system,sans-serif">1</text>
<rect x="507.50" y="290.07" width="43.00" height="54.71" fill="#161b22" rx="3"/>
<rect x="553.50" y="290.07" width="43.00" height="54.71" fill="#161b22" rx="3"/>
<rect x="599.50" y="290.07" width="43.00" height="54.71" fill="#161b22" rx="3"/>
<rect x="645.50" y="290.07" width="43.00" height="54.71" fill="#161b22" rx="3"/>
<rect x="691.50" y="290.07" width="43.00" height="54.71" fill="#161b22" rx="3"/>
<rect x="737.50" y="290.07" width="43.00" height="54.71" fill="#161b22" rx="3"/>
<rect x="783.50" y="290.07" width="43.00" height="54.71" fill="#161b22" rx="3"/>
<rect x="829.50" y="290.07" width="43.00" height="54.71" fill="#161b22" rx="3"/>
<rect x="875.50" y="290.07" width="43.00" height="54.71" fill="#161b22" rx="3"/>
<rect x="921.50" y="290.07" width="43.00" height="54.71" fill="#161b22" rx="3"/>
<rect x="967.50" y="290.07" width="43.00" height="54.71" fill="#161b22" rx="3"/>
<rect x="1013.50" y="290.07" width="43.00" height="54.71" fill="#161b22" rx="3"/>
<rect x="1059.50" y="290.07" width="43.00" height="54.71" fill="#161b22" rx="3"/>
<rect x="1.50" y="347.79" width="43.00" height="54.71" fill="#161b22" rx="3"/>
<rect x="47.50" y="347.79" width="43.00" height="54.71" fill="#161b22" rx="3"/>
<rect x="93.50" y="347.79" width="43.00" height="54.71" fill="#161b22" rx="3"/>
<rect x="139.50" y="347.79" width="43.00" height="54.71" fill="#161b22" rx="3"/>
<rect x="185.50" y="347.79" width="43.00" height="54.71" fill="#161b22" rx="3"/>
<rect x="231.50" y="347.79" width="43.00" height="54.71" fill="#161b22" rx="3"/>
<rect x="277.50" y="347.79" width="43.00" height="54.71" fill="#161b22" rx="3"/>
<rect x="323.50" y="347.79" width="43.00" height="54.71" fill="#161b22" rx="3"/>
<rect x="369.50" y="347.79" width="43.00" height="54.71" fill="#161b22" rx="3"/>
<rect x="415.50" y="347.79" width="43.00" height="54.71" fill="#161b22" rx="3"/>
<rect x="461.50" y="347.79" width="43.00" height="54.71" fill="#161b22" rx="3"/>
<rect x="507.50" y="347.79" width="43.00" height="54.71" fill="#161b22" rx="3"/>
<rect x="553.50" y="347.79" width="43.00" height="54.71" fill="#161b22" rx="3"/>
<rect x="599.50" y="347.79" width="43.00" height="54.71" fill="#161b22" rx="3"/>
<rect x="645.50" y="347.79" width="43.00" height="54.71" fill="#161b22" rx="3"/>
<rect x="691.50" y="347.79" width="43.00" height="54.71" fill="#161b22" rx="3"/>
<rect x="737.50" y="347.79" width="43.00" height="54.71" fill="#161b22" rx="3"/>
<rect x="783.50" y="347.79" width="43.00" height="54.71" fill="#161b22" rx="3"/>
<rect x="829.50" y="347.79" width="43.00" height="54.71" fill="#161b22" rx="3"/>
<rect x="875.50" y="347.79" width="43.00" height="54.71" fill="#161b22" rx="3"/>
<rect x="921.50" y="347.79" width="43.00" height="54.71" fill="#161b22" rx="3"/>
<rect x="967.50" y="347.79" width="43.00" height="54.71" fill="#161b22" rx="3"/>
<rect x="1013.50" y="347.79" width="43.00" height="54.71" fill="#161b22" rx="3"/>
<rect x="1059.50" y="347.79" width="43.00" height="54.71" fill="#161b22" rx="3"/>
</g>
<text x="76" y="522" fill="#8b949e" font-size="12" font-family="-apple-system,sans-serif">Less</text>
<rect x="120.00" y="508" width="34.50" height="37.51" fill="#161b22" rx="2"/>
<rect x="161.40" y="508" width="34.50" height="37.51" fill="#1a7f32" rx="2"/>
<rect x="202.80" y="508" width="34.50" height="37.51" fill="#1a7f32" rx="2"/>
<rect x="244.20" y="508" width="34.50" height="37.51" fill="#1a7f32" rx="2"/>
<rect x="285.60" y="508" width="34.50" height="37.51" fill="#1a7f32" rx="2"/>
<text x="339.0" y="522" fill="#8b949e" font-size="12" font-family="-apple-system,sans-serif">More</text>
</svg>