<?xml version="1.0" encoding="UTF-8"?>
<svg xmlns="http://www.w3.org/2000/svg" viewBox="0 0 604 224" width="100%">
<rect width="100%" height="100%" fill="#0d1117"/>
<text x="4" y="18" font-size="13" font-weight="600" fill="#c9d1d9" font-family:-apple-system,BlinkMacSystemFont,'Segoe UI',Helvetica,Arial,sans-serif>Daily commits by hour</text>
<text x="4" y="32" font-size="10" fill="#6e7681" font-family:-apple-system,BlinkMacSystemFont,'Segoe UI',Helvetica,Arial,sans-serif>100 commits · last 7 days</text>
<text x="42" y="50" font-size="11" text-anchor="end" fill="#8b949e" font-family:-apple-system,BlinkMacSystemFont,'Segoe UI',Helvetica,Arial,sans-serif>Sun</text>
<text x="42" y="72" font-size="11" text-anchor="end" fill="#8b949e" font-family:-apple-system,BlinkMacSystemFont,'Segoe UI',Helvetica,Arial,sans-serif>Mon</text>
<text x="42" y="94" font-size="11" text-anchor="end" fill="#8b949e" font-family:-apple-system,BlinkMacSystemFont,'Segoe UI',Helvetica,Arial,sans-serif>Tue</text>
<text x="42" y="116" font-size="11" text-anchor="end" fill="#8b949e" font-family:-apple-system,BlinkMacSystemFont,'Segoe UI',Helvetica,Arial,sans-serif>Wed</text>
<text x="42" y="138" font-size="11" text-anchor="end" fill="#8b949e" font-family:-apple-system,BlinkMacSystemFont,'Segoe UI',Helvetica,Arial,sans-serif>Thu</text>
<text x="42" y="160" font-size="11" text-anchor="end" fill="#8b949e" font-family:-apple-system,BlinkMacSystemFont,'Segoe UI',Helvetica,Arial,sans-serif>Fri</text>
<text x="42" y="182" font-size="11" text-anchor="end" fill="#8b949e" font-family:-apple-system,BlinkMacSystemFont,'Segoe UI',Helvetica,Arial,sans-serif>Sat</text>
<text x="61" y="214" font-size="10" text-anchor="middle" fill="#6e7681" font-family:-apple-system,BlinkMacSystemFont,'Segoe UI',Helvetica,Arial,sans-serif>0:00</text>
<text x="193" y="214" font-size="10" text-anchor="middle" fill="#6e7681" font-family:-apple-system,BlinkMacSystemFont,'Segoe UI',Helvetica,Arial,sans-serif>6:00</text>
<text x="325" y="214" font-size="10" text-anchor="middle" fill="#6e7681" font-family:-apple-system,BlinkMacSystemFont,'Segoe UI',Helvetica,Arial,sans-serif>12:00</text>
<text x="457" y="214" font-size="10" text-anchor="middle" fill="#6e7681" font-family:-apple-system,BlinkMacSystemFont,'Segoe UI',Helvetica,Arial,sans-serif>18:00</text>
<rect x="52" y="36" width="18" height="18" rx="3" fill="#161b22"/>
<rect x="74" y="36" width="18" height="18" rx="3" fill="#161b22"/>
<rect x="96" y="36" width="18" height="18" rx="3" fill="#006d32"/>
<rect x="118" y="36" width="18" height="18" rx="3" fill="#161b22"/>
<rect x="140" y="36" width="18" height="18" rx="3" fill="#161b22"/>
<rect x="162" y="36" width="18" height="18" rx="3" fill="#161b22"/>
<rect x="184" y="36" width="18" height="18" rx="3" fill="#161b22"/>
<rect x="206" y="36" width="18" height="18" rx="3" fill="#161b22"/>
<rect x="228" y="36" width="18" height="18" rx="3" fill="#161b22"/>
<rect x="250" y="36" width="18" height="18" rx="3" fill="#161b22"/>
<rect x="272" y="36" width="18" height="18" rx="3" fill="#161b22"/>
<rect x="294" y="36" width="18" height="18" rx="3" fill="#161b22"/>
<rect x="316" y="36" width="18" height="18" rx="3" fill="#161b22"/>
<rect x="338" y="36" width="18" height="18" rx="3" fill="#0e4429"/>
<rect x="360" y="36" width="18" height="18" rx="3" fill="#161b22"/>
<rect x="382" y="36" width="18" height="18" rx="3" fill="#161b22"/>
<rect x="404" y="36" width="18" height="18" rx="3" fill="#161b22"/>
<rect x="426" y="36" width="18" height="18" rx="3" fill="#161b22"/>
<rect x="448" y="36" width="18" height="18" rx="3" fill="#161b22"/>
<rect x="470" y="36" width="18" height="18" rx="3" fill="#161b22"/>
<rect x="492" y="36" width="18" height="18" rx="3" fill="#161b22"/>
<rect x="514" y="36" width="18" height="18" rx="3" fill="#161b22"/>
<rect x="536" y="36" width="18" height="18" rx="3" fill="#161b22"/>
<rect x="558" y="36" width="18" height="18" rx="3" fill="#161b22"/>
<rect x="52" y="58" width="18" height="18" rx="3" fill="#161b22"/>
<rect x="74" y="58" width="18" height="18" rx="3" fill="#161b22"/>
<rect x="96" y="58" width="18" height="18" rx="3" fill="#161b22"/>
<rect x="118" y="58" width="18" height="18" rx="3" fill="#161b22"/>
<rect x="140" y="58" width="18" height="18" rx="3" fill="#161b22"/>
<rect x="162" y="58" width="18" height="18" rx="3" fill="#161b22"/>
<rect x="184" y="58" width="18" height="18" rx="3" fill="#161b22"/>
<rect x="206" y="58" width="18" height="18" rx="3" fill="#161b22"/>
<rect x="228" y="58" width="18" height="18" rx="3" fill="#161b22"/>
<rect x="250" y="58" width="18" height="18" rx="3" fill="#161b22"/>
<rect x="272" y="58" width="18" height="18" rx="3" fill="#161b22"/>
<rect x="294" y="58" width="18" height="18" rx="3" fill="#161b22"/>
<rect x="316" y="58" width="18" height="18" rx="3" fill="#161b22"/>
<rect x="338" y="58" width="18" height="18" rx="3" fill="#0e4429"/>
<rect x="360" y="58" width="18" height="18" rx="3" fill="#161b22"/>
<rect x="382" y="58" width="18" height="18" rx="3" fill="#0e4429"/>
<rect x="404" y="58" width="18" height="18" rx="3" fill="#161b22"/>
<rect x="426" y="58" width="18" height="18" rx="3" fill="#161b22"/>
<rect x="448" y="58" width="18" height="18" rx="3" fill="#161b22"/>
<rect x="470" y="58" width="18" height="18" rx="3" fill="#161b22"/>
<rect x="492" y="58" width="18" height="18" rx="3" fill="#161b22"/>
<rect x="514" y="58" width="18" height="18" rx="3" fill="#0e4429"/>
<rect x="536" y="58" width="18" height="18" rx="3" fill="#161b22"/>
<rect x="558" y="58" width="18" height="18" rx="3" fill="#161b22"/>
<rect x="52" y="80" width="18" height="18" rx="3" fill="#161b22"/>
<rect x="74" y="80" width="18" height="18" rx="3" fill="#161b22"/>
<rect x="96" y="80" width="18" height="18" rx="3" fill="#161b22"/>
<rect x="118" y="80" width="18" height="18" rx="3" fill="#161b22"/>
<rect x="140" y="80" width="18" height="18" rx="3" fill="#161b22"/>
<rect x="162" y="80" width="18" height="18" rx="3" fill="#161b22"/>
<rect x="184" y="80" width="18" height="18" rx="3" fill="#161b22"/>
<rect x="206" y="80" width="18" height="18" rx="3" fill="#161b22"/>
<rect x="228" y="80" width="18" height="18" rx="3" fill="#161b22"/>
<rect x="250" y="80" width="18" height="18" rx="3" fill="#161b22"/>
<rect x="272" y="80" width="18" height="18" rx="3" fill="#161b22"/>
<rect x="294" y="80" width="18" height="18" rx="3" fill="#161b22"/>
<rect x="316" y="80" width="18" height="18" rx="3" fill="#161b22"/>
<rect x="338" y="80" width="18" height="18" rx="3" fill="#0e4429"/>
<rect x="360" y="80" width="18" height="18" rx="3" fill="#161b22"/>
<rect x="382" y="80" width="18" height="18" rx="3" fill="#0e4429"/>
<rect x="404" y="80" width="18" height="18" rx="3" fill="#161b22"/>
<rect x="426" y="80" width="18" height="18" rx="3" fill="#161b22"/>
<rect x="448" y="80" width="18" height="18" rx="3" fill="#161b22"/>
<rect x="470" y="80" width="18" height="18" rx="3" fill="#161b22"/>
<rect x="492" y="80" width="18" height="18" rx="3" fill="#161b22"/>
<rect x="514" y="80" width="18" height="18" rx="3" fill="#0e4429"/>
<rect x="536" y="80" width="18" height="18" rx="3" fill="#161b22"/>
<rect x="558" y="80" width="18" height="18" rx="3" fill="#161b22"/>
<rect x="52" y="102" width="18" height="18" rx="3" fill="#161b22"/>
<rect x="74" y="102" width="18" height="18" rx="3" fill="#161b22"/>
<rect x="96" y="102" width="18" height="18" rx="3" fill="#161b22"/>
<rect x="118" y="102" width="18" height="18" rx="3" fill="#161b22"/>
<rect x="140" y="102" width="18" height="18" rx="3" fill="#161b22"/>
<rect x="162" y="102" width="18" height="18" rx="3" fill="#161b22"/>
<rect x="184" y="102" width="18" height="18" rx="3" fill="#161b22"/>
<rect x="206" y="102" width="18" height="18" rx="3" fill="#161b22"/>
<rect x="228" y="102" width="18" height="18" rx="3" fill="#161b22"/>
<rect x="250" y="102" width="18" height="18" rx="3" fill="#161b22"/>
<rect x="272" y="102" width="18" height="18" rx="3" fill="#161b22"/>
<rect x="294" y="102" width="18" height="18" rx="3" fill="#161b22"/>
<rect x="316" y="102" width="18" height="18" rx="3" fill="#161b22"/>
<rect x="338" y="102" width="18" height="18" rx="3" fill="#0e4429"/>
<rect x="360" y="102" width="18" height="18" rx="3" fill="#161b22"/>
<rect x="382" y="102" width="18" height="18" rx="3" fill="#0e4429"/>
<rect x="404" y="102" width="18" height="18" rx="3" fill="#161b22"/>
<rect x="426" y="102" width="18" height="18" rx="3" fill="#161b22"/>
<rect x="448" y="102" width="18" height="18" rx="3" fill="#161b22"/>
<rect x="470" y="102" width="18" height="18" rx="3" fill="#161b22"/>
<rect x="492" y="102" width="18" height="18" rx="3" fill="#161b22"/>
<rect x="514" y="102" width="18" height="18" rx="3" fill="#0e4429"/>
<rect x="536" y="102" width="18" height="18" rx="3" fill="#161b22"/>
<rect x="558" y="102" width="18" height="18" rx="3" fill="#0e4429"/>
<rect x="52" y="124" width="18" height="18" rx="3" fill="#006d32"/>
<rect x="74" y="124" width="18" height="18" rx="3" fill="#161b22"/>
<rect x="96" y="124" width="18" height="18" rx="3" fill="#161b22"/>
<rect x="118" y="124" width="18" height="18" rx="3" fill="#161b22"/>
<rect x="140" y="124" width="18" height="18" rx="3" fill="#161b22"/>
<rect x="162" y="124" width="18" height="18" rx="3" fill="#161b22"/>
<rect x="184" y="124" width="18" height="18" rx="3" fill="#161b22"/>
<rect x="206" y="124" width="18" height="18" rx="3" fill="#161b22"/>
<rect x="228" y="124" width="18" height="18" rx="3" fill="#161b22"/>
<rect x="250" y="124" width="18" height="18" rx="3" fill="#161b22"/>
<rect x="272" y="124" width="18" height="18" rx="3" fill="#161b22"/>
<rect x="294" y="124" width="18" height="18" rx="3" fill="#161b22"/>
<rect x="316" y="124" width="18" height="18" rx="3" fill="#161b22"/>
<rect x="338" y="124" width="18" height="18" rx="3" fill="#0e4429"/>
<rect x="360" y="124" width="18" height="18" rx="3" fill="#161b22"/>
<rect x="382" y="124" width="18" height="18" rx="3" fill="#161b22"/>
<rect x="404" y="124" width="18" height="18" rx="3" fill="#161b22"/>
<rect x="426" y="124" width="18" height="18" rx="3" fill="#161b22"/>
<rect x="448" y="124" width="18" height="18" rx="3" fill="#006d32"/>
<rect x="470" y="124" width="18" height="18" rx="3" fill="#161b22"/>
<rect x="492" y="124" width="18" height="18" rx="3" fill="#161b22"/>
<rect x="514" y="124" width="18" height="18" rx="3" fill="#161b22"/>
<rect x="536" y="124" width="18" height="18" rx="3" fill="#161b22"/>
<rect x="558" y="124" width="18" height="18" rx="3" fill="#161b22"/>
<rect x="52" y="146" width="18" height="18" rx="3" fill="#161b22"/>
<rect x="74" y="146" width="18" height="18" rx="3" fill="#39d353"/>
<rect x="96" y="146" width="18" height="18" rx="3" fill="#161b22"/>
<rect x="118" y="146" width="18" height="18" rx="3" fill="#161b22"/>
<rect x="140" y="146" width="18" height="18" rx="3" fill="#161b22"/>
<rect x="162" y="146" width="18" height="18" rx="3" fill="#161b22"/>
<rect x="184" y="146" width="18" height="18" rx="3" fill="#161b22"/>
<rect x="206" y="146" width="18" height="18" rx="3" fill="#161b22"/>
<rect x="228" y="146" width="18" height="18" rx="3" fill="#0e4429"/>
<rect x="250" y="146" width="18" height="18" rx="3" fill="#26a641"/>
<rect x="272" y="146" width="18" height="18" rx="3" fill="#161b22"/>
<rect x="294" y="146" width="18" height="18" rx="3" fill="#161b22"/>
<rect x="316" y="146" width="18" height="18" rx="3" fill="#161b22"/>
<rect x="338" y="146" width="18" height="18" rx="3" fill="#161b22"/>
<rect x="360" y="146" width="18" height="18" rx="3" fill="#161b22"/>
<rect x="382" y="146" width="18" height="18" rx="3" fill="#161b22"/>
<rect x="404" y="146" width="18" height="18" rx="3" fill="#161b22"/>
<rect x="426" y="146" width="18" height="18" rx="3" fill="#161b22"/>
<rect x="448" y="146" width="18" height="18" rx="3" fill="#161b22"/>
<rect x="470" y="146" width="18" height="18" rx="3" fill="#161b22"/>
<rect x="492" y="146" width="18" height="18" rx="3" fill="#161b22"/>
<rect x="514" y="146" width="18" height="18" rx="3" fill="#161b22"/>
<rect x="536" y="146" width="18" height="18" rx="3" fill="#161b22"/>
<rect x="558" y="146" width="18" height="18" rx="3" fill="#161b22"/>
<rect x="52" y="168" width="18" height="18" rx="3" fill="#161b22"/>
<rect x="74" y="168" width="18" height="18" rx="3" fill="#161b22"/>
<rect x="96" y="168" width="18" height="18" rx="3" fill="#161b22"/>
<rect x="118" y="168" width="18" height="18" rx="3" fill="#161b22"/>
<rect x="140" y="168" width="18" height="18" rx="3" fill="#161b22"/>
<rect x="162" y="168" width="18" height="18" rx="3" fill="#161b22"/>
<rect x="184" y="168" width="18" height="18" rx="3" fill="#161b22"/>
<rect x="206" y="168" width="18" height="18" rx="3" fill="#161b22"/>
<rect x="228" y="168" width="18" height="18" rx="3" fill="#161b22"/>
<rect x="250" y="168" width="18" height="18" rx="3" fill="#161b22"/>
<rect x="272" y="168" width="18" height="18" rx="3" fill="#161b22"/>
<rect x="294" y="168" width="18" height="18" rx="3" fill="#161b22"/>
<rect x="316" y="168" width="18" height="18" rx="3" fill="#161b22"/>
<rect x="338" y="168" width="18" height="18" rx="3" fill="#161b22"/>
<rect x="360" y="168" width="18" height="18" rx="3" fill="#161b22"/>
<rect x="382" y="168" width="18" height="18" rx="3" fill="#0e4429"/>
<rect x="404" y="168" width="18" height="18" rx="3" fill="#161b22"/>
<rect x="426" y="168" width="18" height="18" rx="3" fill="#161b22"/>
<rect x="448" y="168" width="18" height="18" rx="3" fill="#161b22"/>
<rect x="470" y="168" width="18" height="18" rx="3" fill="#161b22"/>
<rect x="492" y="168" width="18" height="18" rx="3" fill="#161b22"/>
<rect x="514" y="168" width="18" height="18" rx="3" fill="#0e4429"/>
<rect x="536" y="168" width="18" height="18" rx="3" fill="#161b22"/>
<rect x="558" y="168" width="18" height="18" rx="3" fill="#161b22"/>
<text x="518" y="212" font-size="10" fill="#6e7681" font-family:-apple-system,BlinkMacSystemFont,'Segoe UI',Helvetica,Arial,sans-serif>Less</text>
<rect x="548" y="202" width="11" height="11" rx="2" fill="#161b22"/>
<rect x="562" y="202" width="11" height="11" rx="2" fill="#0e4429"/>
<rect x="576" y="202" width="11" height="11" rx="2" fill="#006d32"/>
<rect x="590" y="202" width="11" height="11" rx="2" fill="#26a641"/>
<rect x="604" y="202" width="11" height="11" rx="2" fill="#39d353"/>
<text x="620" y="212" font-size="10" fill="#6e7681" font-family:-apple-system,BlinkMacSystemFont,'Segoe UI',Helvetica,Arial,sans-serif>More</text>
</svg>