<?xml version="1.0" encoding="UTF-8"?>
<svg xmlns="http://www.w3.org/2000/svg" viewBox="0 0 730 210" width="100%">
<style>
.r{fill:#161b22;stroke:#30363d;stroke-width:1}
.g1{fill:#0e4429;stroke:#30363d;stroke-width:1}
.g2{fill:#006d32;stroke:#30363d;stroke-width:1}
.g3{fill:#26a641;stroke:#30363d;stroke-width:1}
.g4{fill:#39d353;stroke:#30363d;stroke-width:1}
text{font-family:ui-monospace,SFMono-Regular,Menlo,monospace;font-size:11px;fill:#8b949e;dominant-baseline:middle;text-anchor:middle}
.lbl{font-family:ui-sans-serif,-apple-system,BlinkMacSystemFont,sans-serif;font-size:13px;fill:#c9d1d9;font-weight:600}
.sm{font-family:ui-sans-serif,sans-serif;font-size:10px;fill:#8b949e}
</style>
<text class="lbl" x="48" y="18">Daily commits by hour</text>
<text class="sm" x="20" y="41">12am</text>
<text x="62" y="23">0</text>
<rect class="g2" x="48" y="30" width="26" height="20"/>
<rect class="g2" x="48" y="52" width="26" height="20"/>
<rect class="g2" x="48" y="74" width="26" height="20"/>
<rect class="g2" x="48" y="96" width="26" height="20"/>
<rect class="g2" x="48" y="118" width="26" height="20"/>
<rect class="g2" x="48" y="140" width="26" height="20"/>
<rect class="g2" x="48" y="162" width="26" height="20"/>
<rect class="g5" x="76" y="30" width="26" height="20"/>
<rect class="g5" x="76" y="52" width="26" height="20"/>
<rect class="g5" x="76" y="74" width="26" height="20"/>
<rect class="g5" x="76" y="96" width="26" height="20"/>
<rect class="g5" x="76" y="118" width="26" height="20"/>
<rect class="g5" x="76" y="140" width="26" height="20"/>
<rect class="g5" x="76" y="162" width="26" height="20"/>
<rect class="g2" x="104" y="30" width="26" height="20"/>
<rect class="g2" x="104" y="52" width="26" height="20"/>
<rect class="g2" x="104" y="74" width="26" height="20"/>
<rect class="g2" x="104" y="96" width="26" height="20"/>
<rect class="g2" x="104" y="118" width="26" height="20"/>
<rect class="g2" x="104" y="140" width="26" height="20"/>
<rect class="g2" x="104" y="162" width="26" height="20"/>
<rect class="r" x="132" y="30" width="26" height="20"/>
<rect class="r" x="132" y="52" width="26" height="20"/>
<rect class="r" x="132" y="74" width="26" height="20"/>
<rect class="r" x="132" y="96" width="26" height="20"/>
<rect class="r" x="132" y="118" width="26" height="20"/>
<rect class="r" x="132" y="140" width="26" height="20"/>
<rect class="r" x="132" y="162" width="26" height="20"/>
<rect class="r" x="160" y="30" width="26" height="20"/>
<rect class="r" x="160" y="52" width="26" height="20"/>
<rect class="r" x="160" y="74" width="26" height="20"/>
<rect class="r" x="160" y="96" width="26" height="20"/>
<rect class="r" x="160" y="118" width="26" height="20"/>
<rect class="r" x="160" y="140" width="26" height="20"/>
<rect class="r" x="160" y="162" width="26" height="20"/>
<rect class="r" x="188" y="30" width="26" height="20"/>
<rect class="r" x="188" y="52" width="26" height="20"/>
<rect class="r" x="188" y="74" width="26" height="20"/>
<rect class="r" x="188" y="96" width="26" height="20"/>
<rect class="r" x="188" y="118" width="26" height="20"/>
<rect class="r" x="188" y="140" width="26" height="20"/>
<rect class="r" x="188" y="162" width="26" height="20"/>
<text x="230" y="23">6</text>
<rect class="r" x="216" y="30" width="26" height="20"/>
<rect class="r" x="216" y="52" width="26" height="20"/>
<rect class="r" x="216" y="74" width="26" height="20"/>
<rect class="r" x="216" y="96" width="26" height="20"/>
<rect class="r" x="216" y="118" width="26" height="20"/>
<rect class="r" x="216" y="140" width="26" height="20"/>
<rect class="r" x="216" y="162" width="26" height="20"/>
<rect class="r" x="244" y="30" width="26" height="20"/>
<rect class="r" x="244" y="52" width="26" height="20"/>
<rect class="r" x="244" y="74" width="26" height="20"/>
<rect class="r" x="244" y="96" width="26" height="20"/>
<rect class="r" x="244" y="118" width="26" height="20"/>
<rect class="r" x="244" y="140" width="26" height="20"/>
<rect class="r" x="244" y="162" width="26" height="20"/>
<rect class="g2" x="272" y="30" width="26" height="20"/>
<rect class="g2" x="272" y="52" width="26" height="20"/>
<rect class="g2" x="272" y="74" width="26" height="20"/>
<rect class="g2" x="272" y="96" width="26" height="20"/>
<rect class="g2" x="272" y="118" width="26" height="20"/>
<rect class="g2" x="272" y="140" width="26" height="20"/>
<rect class="g2" x="272" y="162" width="26" height="20"/>
<rect class="g4" x="300" y="30" width="26" height="20"/>
<rect class="g4" x="300" y="52" width="26" height="20"/>
<rect class="g4" x="300" y="74" width="26" height="20"/>
<rect class="g4" x="300" y="96" width="26" height="20"/>
<rect class="g4" x="300" y="118" width="26" height="20"/>
<rect class="g4" x="300" y="140" width="26" height="20"/>
<rect class="g4" x="300" y="162" width="26" height="20"/>
<rect class="r" x="328" y="30" width="26" height="20"/>
<rect class="r" x="328" y="52" width="26" height="20"/>
<rect class="r" x="328" y="74" width="26" height="20"/>
<rect class="r" x="328" y="96" width="26" height="20"/>
<rect class="r" x="328" y="118" width="26" height="20"/>
<rect class="r" x="328" y="140" width="26" height="20"/>
<rect class="r" x="328" y="162" width="26" height="20"/>
<rect class="r" x="356" y="30" width="26" height="20"/>
<rect class="r" x="356" y="52" width="26" height="20"/>
<rect class="r" x="356" y="74" width="26" height="20"/>
<rect class="r" x="356" y="96" width="26" height="20"/>
<rect class="r" x="356" y="118" width="26" height="20"/>
<rect class="r" x="356" y="140" width="26" height="20"/>
<rect class="r" x="356" y="162" width="26" height="20"/>
<text x="398" y="23">12pm</text>
<rect class="r" x="384" y="30" width="26" height="20"/>
<rect class="r" x="384" y="52" width="26" height="20"/>
<rect class="r" x="384" y="74" width="26" height="20"/>
<rect class="r" x="384" y="96" width="26" height="20"/>
<rect class="r" x="384" y="118" width="26" height="20"/>
<rect class="r" x="384" y="140" width="26" height="20"/>
<rect class="r" x="384" y="162" width="26" height="20"/>
<rect class="g2" x="412" y="30" width="26" height="20"/>
<rect class="g2" x="412" y="52" width="26" height="20"/>
<rect class="g2" x="412" y="74" width="26" height="20"/>
<rect class="g2" x="412" y="96" width="26" height="20"/>
<rect class="g2" x="412" y="118" width="26" height="20"/>
<rect class="g2" x="412" y="140" width="26" height="20"/>
<rect class="g2" x="412" y="162" width="26" height="20"/>
<rect class="r" x="440" y="30" width="26" height="20"/>
<rect class="r" x="440" y="52" width="26" height="20"/>
<rect class="r" x="440" y="74" width="26" height="20"/>
<rect class="r" x="440" y="96" width="26" height="20"/>
<rect class="r" x="440" y="118" width="26" height="20"/>
<rect class="r" x="440" y="140" width="26" height="20"/>
<rect class="r" x="440" y="162" width="26" height="20"/>
<rect class="g4" x="468" y="30" width="26" height="20"/>
<rect class="g4" x="468" y="52" width="26" height="20"/>
<rect class="g4" x="468" y="74" width="26" height="20"/>
<rect class="g4" x="468" y="96" width="26" height="20"/>
<rect class="g4" x="468" y="118" width="26" height="20"/>
<rect class="g4" x="468" y="140" width="26" height="20"/>
<rect class="g4" x="468" y="162" width="26" height="20"/>
<rect class="r" x="496" y="30" width="26" height="20"/>
<rect class="r" x="496" y="52" width="26" height="20"/>
<rect class="r" x="496" y="74" width="26" height="20"/>
<rect class="r" x="496" y="96" width="26" height="20"/>
<rect class="r" x="496" y="118" width="26" height="20"/>
<rect class="r" x="496" y="140" width="26" height="20"/>
<rect class="r" x="496" y="162" width="26" height="20"/>
<rect class="r" x="524" y="30" width="26" height="20"/>
<rect class="r" x="524" y="52" width="26" height="20"/>
<rect class="r" x="524" y="74" width="26" height="20"/>
<rect class="r" x="524" y="96" width="26" height="20"/>
<rect class="r" x="524" y="118" width="26" height="20"/>
<rect class="r" x="524" y="140" width="26" height="20"/>
<rect class="r" x="524" y="162" width="26" height="20"/>
<text x="566" y="23">6pm</text>
<rect class="g1" x="552" y="30" width="26" height="20"/>
<rect class="g1" x="552" y="52" width="26" height="20"/>
<rect class="g1" x="552" y="74" width="26" height="20"/>
<rect class="g1" x="552" y="96" width="26" height="20"/>
<rect class="g1" x="552" y="118" width="26" height="20"/>
<rect class="g1" x="552" y="140" width="26" height="20"/>
<rect class="g1" x="552" y="162" width="26" height="20"/>
<rect class="r" x="580" y="30" width="26" height="20"/>
<rect class="r" x="580" y="52" width="26" height="20"/>
<rect class="r" x="580" y="74" width="26" height="20"/>
<rect class="r" x="580" y="96" width="26" height="20"/>
<rect class="r" x="580" y="118" width="26" height="20"/>
<rect class="r" x="580" y="140" width="26" height="20"/>
<rect class="r" x="580" y="162" width="26" height="20"/>
<rect class="r" x="608" y="30" width="26" height="20"/>
<rect class="r" x="608" y="52" width="26" height="20"/>
<rect class="r" x="608" y="74" width="26" height="20"/>
<rect class="r" x="608" y="96" width="26" height="20"/>
<rect class="r" x="608" y="118" width="26" height="20"/>
<rect class="r" x="608" y="140" width="26" height="20"/>
<rect class="r" x="608" y="162" width="26" height="20"/>
<rect class="g2" x="636" y="30" width="26" height="20"/>
<rect class="g2" x="636" y="52" width="26" height="20"/>
<rect class="g2" x="636" y="74" width="26" height="20"/>
<rect class="g2" x="636" y="96" width="26" height="20"/>
<rect class="g2" x="636" y="118" width="26" height="20"/>
<rect class="g2" x="636" y="140" width="26" height="20"/>
<rect class="g2" x="636" y="162" width="26" height="20"/>
<rect class="r" x="664" y="30" width="26" height="20"/>
<rect class="r" x="664" y="52" width="26" height="20"/>
<rect class="r" x="664" y="74" width="26" height="20"/>
<rect class="r" x="664" y="96" width="26" height="20"/>
<rect class="r" x="664" y="118" width="26" height="20"/>
<rect class="r" x="664" y="140" width="26" height="20"/>
<rect class="r" x="664" y="162" width="26" height="20"/>
<rect class="g1" x="692" y="30" width="26" height="20"/>
<rect class="g1" x="692" y="52" width="26" height="20"/>
<rect class="g1" x="692" y="74" width="26" height="20"/>
<rect class="g1" x="692" y="96" width="26" height="20"/>
<rect class="g1" x="692" y="118" width="26" height="20"/>
<rect class="g1" x="692" y="140" width="26" height="20"/>
<rect class="g1" x="692" y="162" width="26" height="20"/>
<text x="22" y="41">Sun</text>
<text x="22" y="63">Mon</text>
<text x="22" y="85">Tue</text>
<text x="22" y="107">Wed</text>
<text x="22" y="129">Thu</text>
<text x="22" y="151">Fri</text>
<text x="22" y="173">Sat</text>
<rect class="r" x="608" y="194" width="12" height="12"/>
<text class="sm" x="624" y="204">0</text>
<rect class="g1" x="630" y="194" width="12" height="12"/>
<text class="sm" x="646" y="204">5</text>
<rect class="g2" x="652" y="194" width="12" height="12"/>
<text class="sm" x="668" y="204">10</text>
<rect class="g3" x="674" y="194" width="12" height="12"/>
<text class="sm" x="690" y="204">15</text>
<rect class="g4" x="696" y="194" width="12" height="12"/>
<text class="sm" x="712" y="204">20</text>
<text class="sm" x="728" y="204">More</text>
<text class="sm" x="48" y="224">Last 7 days · 87 commits · peak 20</text>
</svg>