<?xml version="1.0" encoding="UTF-8"?>
<svg xmlns="http://www.w3.org/2000/svg" viewBox="0 0 688 258" width="100%">
<rect width="100%" height="100%" fill="#0d1117"/>
<text x="4" y="18" font-size="13" font-weight="600" fill="#c9d1d9">Daily commits by hour</text>
<text x="4" y="32" font-size="10" fill="#6e7681">100 commits · last 7 days</text>
<text x="34" y="52" font-size="11" text-anchor="end" fill="#8b949e">Sun</text>
<text x="34" y="78" font-size="11" text-anchor="end" fill="#8b949e">Mon</text>
<text x="34" y="104" font-size="11" text-anchor="end" fill="#8b949e">Tue</text>
<text x="34" y="130" font-size="11" text-anchor="end" fill="#8b949e">Wed</text>
<text x="34" y="156" font-size="11" text-anchor="end" fill="#8b949e">Thu</text>
<text x="34" y="182" font-size="11" text-anchor="end" fill="#8b949e">Fri</text>
<text x="34" y="208" font-size="11" text-anchor="end" fill="#8b949e">Sat</text>
<text x="55" y="246" font-size="10" text-anchor="middle" fill="#6e7681">0:00</text>
<text x="211" y="246" font-size="10" text-anchor="middle" fill="#6e7681">6:00</text>
<text x="367" y="246" font-size="10" text-anchor="middle" fill="#6e7681">12:00</text>
<text x="523" y="246" font-size="10" text-anchor="middle" fill="#6e7681">18:00</text>
<rect x="44" y="36" width="22" height="22" rx="3" fill="#161b22"/>
<rect x="70" y="36" width="22" height="22" rx="3" fill="#161b22"/>
<rect x="96" y="36" width="22" height="22" rx="3" fill="#006d32"/>
<text x="107" y="51" font-size="9" text-anchor="middle" fill="#c9d1d9" font-weight="500">8</text>
<rect x="122" y="36" width="22" height="22" rx="3" fill="#161b22"/>
<rect x="148" y="36" width="22" height="22" rx="3" fill="#161b22"/>
<rect x="174" y="36" width="22" height="22" rx="3" fill="#161b22"/>
<rect x="200" y="36" width="22" height="22" rx="3" fill="#161b22"/>
<rect x="226" y="36" width="22" height="22" rx="3" fill="#161b22"/>
<rect x="252" y="36" width="22" height="22" rx="3" fill="#161b22"/>
<rect x="278" y="36" width="22" height="22" rx="3" fill="#161b22"/>
<rect x="304" y="36" width="22" height="22" rx="3" fill="#161b22"/>
<rect x="330" y="36" width="22" height="22" rx="3" fill="#161b22"/>
<rect x="356" y="36" width="22" height="22" rx="3" fill="#161b22"/>
<rect x="382" y="36" width="22" height="22" rx="3" fill="#0e4429"/>
<text x="393" y="51" font-size="9" text-anchor="middle" fill="#58a6ff" font-weight="500">3</text>
<rect x="408" y="36" width="22" height="22" rx="3" fill="#161b22"/>
<rect x="434" y="36" width="22" height="22" rx="3" fill="#161b22"/>
<rect x="460" y="36" width="22" height="22" rx="3" fill="#161b22"/>
<rect x="486" y="36" width="22" height="22" rx="3" fill="#161b22"/>
<rect x="512" y="36" width="22" height="22" rx="3" fill="#161b22"/>
<rect x="538" y="36" width="22" height="22" rx="3" fill="#161b22"/>
<rect x="564" y="36" width="22" height="22" rx="3" fill="#161b22"/>
<rect x="590" y="36" width="22" height="22" rx="3" fill="#161b22"/>
<rect x="616" y="36" width="22" height="22" rx="3" fill="#161b22"/>
<rect x="642" y="36" width="22" height="22" rx="3" fill="#161b22"/>
<rect x="44" y="62" width="22" height="22" rx="3" fill="#161b22"/>
<rect x="70" y="62" width="22" height="22" rx="3" fill="#161b22"/>
<rect x="96" y="62" width="22" height="22" rx="3" fill="#161b22"/>
<rect x="122" y="62" width="22" height="22" rx="3" fill="#161b22"/>
<rect x="148" y="62" width="22" height="22" rx="3" fill="#161b22"/>
<rect x="174" y="62" width="22" height="22" rx="3" fill="#161b22"/>
<rect x="200" y="62" width="22" height="22" rx="3" fill="#161b22"/>
<rect x="226" y="62" width="22" height="22" rx="3" fill="#161b22"/>
<rect x="252" y="62" width="22" height="22" rx="3" fill="#161b22"/>
<rect x="278" y="62" width="22" height="22" rx="3" fill="#161b22"/>
<rect x="304" y="62" width="22" height="22" rx="3" fill="#161b22"/>
<rect x="330" y="62" width="22" height="22" rx="3" fill="#161b22"/>
<rect x="356" y="62" width="22" height="22" rx="3" fill="#161b22"/>
<rect x="382" y="62" width="22" height="22" rx="3" fill="#0e4429"/>
<text x="393" y="77" font-size="9" text-anchor="middle" fill="#58a6ff" font-weight="500">2</text>
<rect x="408" y="62" width="22" height="22" rx="3" fill="#161b22"/>
<rect x="434" y="62" width="22" height="22" rx="3" fill="#0e4429"/>
<text x="445" y="77" font-size="9" text-anchor="middle" fill="#58a6ff" font-weight="500">5</text>
<rect x="460" y="62" width="22" height="22" rx="3" fill="#161b22"/>
<rect x="486" y="62" width="22" height="22" rx="3" fill="#161b22"/>
<rect x="512" y="62" width="22" height="22" rx="3" fill="#161b22"/>
<rect x="538" y="62" width="22" height="22" rx="3" fill="#161b22"/>
<rect x="564" y="62" width="22" height="22" rx="3" fill="#161b22"/>
<rect x="590" y="62" width="22" height="22" rx="3" fill="#0e4429"/>
<text x="601" y="77" font-size="9" text-anchor="middle" fill="#58a6ff" font-weight="500">3</text>
<rect x="616" y="62" width="22" height="22" rx="3" fill="#161b22"/>
<rect x="642" y="62" width="22" height="22" rx="3" fill="#161b22"/>
<rect x="44" y="88" width="22" height="22" rx="3" fill="#161b22"/>
<rect x="70" y="88" width="22" height="22" rx="3" fill="#161b22"/>
<rect x="96" y="88" width="22" height="22" rx="3" fill="#161b22"/>
<rect x="122" y="88" width="22" height="22" rx="3" fill="#161b22"/>
<rect x="148" y="88" width="22" height="22" rx="3" fill="#161b22"/>
<rect x="174" y="88" width="22" height="22" rx="3" fill="#161b22"/>
<rect x="200" y="88" width="22" height="22" rx="3" fill="#161b22"/>
<rect x="226" y="88" width="22" height="22" rx="3" fill="#161b22"/>
<rect x="252" y="88" width="22" height="22" rx="3" fill="#161b22"/>
<rect x="278" y="88" width="22" height="22" rx="3" fill="#161b22"/>
<rect x="304" y="88" width="22" height="22" rx="3" fill="#161b22"/>
<rect x="330" y="88" width="22" height="22" rx="3" fill="#161b22"/>
<rect x="356" y="88" width="22" height="22" rx="3" fill="#161b22"/>
<rect x="382" y="88" width="22" height="22" rx="3" fill="#0e4429"/>
<text x="393" y="103" font-size="9" text-anchor="middle" fill="#58a6ff" font-weight="500">2</text>
<rect x="408" y="88" width="22" height="22" rx="3" fill="#161b22"/>
<rect x="434" y="88" width="22" height="22" rx="3" fill="#0e4429"/>
<text x="445" y="103" font-size="9" text-anchor="middle" fill="#58a6ff" font-weight="500">5</text>
<rect x="460" y="88" width="22" height="22" rx="3" fill="#161b22"/>
<rect x="486" y="88" width="22" height="22" rx="3" fill="#161b22"/>
<rect x="512" y="88" width="22" height="22" rx="3" fill="#161b22"/>
<rect x="538" y="88" width="22" height="22" rx="3" fill="#161b22"/>
<rect x="564" y="88" width="22" height="22" rx="3" fill="#161b22"/>
<rect x="590" y="88" width="22" height="22" rx="3" fill="#0e4429"/>
<text x="601" y="103" font-size="9" text-anchor="middle" fill="#58a6ff" font-weight="500">1</text>
<rect x="616" y="88" width="22" height="22" rx="3" fill="#161b22"/>
<rect x="642" y="88" width="22" height="22" rx="3" fill="#161b22"/>
<rect x="44" y="114" width="22" height="22" rx="3" fill="#161b22"/>
<rect x="70" y="114" width="22" height="22" rx="3" fill="#161b22"/>
<rect x="96" y="114" width="22" height="22" rx="3" fill="#161b22"/>
<rect x="122" y="114" width="22" height="22" rx="3" fill="#161b22"/>
<rect x="148" y="114" width="22" height="22" rx="3" fill="#161b22"/>
<rect x="174" y="114" width="22" height="22" rx="3" fill="#161b22"/>
<rect x="200" y="114" width="22" height="22" rx="3" fill="#161b22"/>
<rect x="226" y="114" width="22" height="22" rx="3" fill="#161b22"/>
<rect x="252" y="114" width="22" height="22" rx="3" fill="#161b22"/>
<rect x="278" y="114" width="22" height="22" rx="3" fill="#161b22"/>
<rect x="304" y="114" width="22" height="22" rx="3" fill="#161b22"/>
<rect x="330" y="114" width="22" height="22" rx="3" fill="#161b22"/>
<rect x="356" y="114" width="22" height="22" rx="3" fill="#161b22"/>
<rect x="382" y="114" width="22" height="22" rx="3" fill="#0e4429"/>
<text x="393" y="129" font-size="9" text-anchor="middle" fill="#58a6ff" font-weight="500">2</text>
<rect x="408" y="114" width="22" height="22" rx="3" fill="#161b22"/>
<rect x="434" y="114" width="22" height="22" rx="3" fill="#0e4429"/>
<text x="445" y="129" font-size="9" text-anchor="middle" fill="#58a6ff" font-weight="500">4</text>
<rect x="460" y="114" width="22" height="22" rx="3" fill="#161b22"/>
<rect x="486" y="114" width="22" height="22" rx="3" fill="#161b22"/>
<rect x="512" y="114" width="22" height="22" rx="3" fill="#161b22"/>
<rect x="538" y="114" width="22" height="22" rx="3" fill="#161b22"/>
<rect x="564" y="114" width="22" height="22" rx="3" fill="#161b22"/>
<rect x="590" y="114" width="22" height="22" rx="3" fill="#0e4429"/>
<text x="601" y="129" font-size="9" text-anchor="middle" fill="#58a6ff" font-weight="500">1</text>
<rect x="616" y="114" width="22" height="22" rx="3" fill="#161b22"/>
<rect x="642" y="114" width="22" height="22" rx="3" fill="#0e4429"/>
<text x="653" y="129" font-size="9" text-anchor="middle" fill="#58a6ff" font-weight="500">3</text>
<rect x="44" y="140" width="22" height="22" rx="3" fill="#006d32"/>
<text x="55" y="155" font-size="9" text-anchor="middle" fill="#c9d1d9" font-weight="500">6</text>
<rect x="70" y="140" width="22" height="22" rx="3" fill="#161b22"/>
<rect x="96" y="140" width="22" height="22" rx="3" fill="#161b22"/>
<rect x="122" y="140" width="22" height="22" rx="3" fill="#161b22"/>
<rect x="148" y="140" width="22" height="22" rx="3" fill="#161b22"/>
<rect x="174" y="140" width="22" height="22" rx="3" fill="#161b22"/>
<rect x="200" y="140" width="22" height="22" rx="3" fill="#161b22"/>
<rect x="226" y="140" width="22" height="22" rx="3" fill="#161b22"/>
<rect x="252" y="140" width="22" height="22" rx="3" fill="#161b22"/>
<rect x="278" y="140" width="22" height="22" rx="3" fill="#161b22"/>
<rect x="304" y="140" width="22" height="22" rx="3" fill="#161b22"/>
<rect x="330" y="140" width="22" height="22" rx="3" fill="#161b22"/>
<rect x="356" y="140" width="22" height="22" rx="3" fill="#161b22"/>
<rect x="382" y="140" width="22" height="22" rx="3" fill="#0e4429"/>
<text x="393" y="155" font-size="9" text-anchor="middle" fill="#58a6ff" font-weight="500">2</text>
<rect x="408" y="140" width="22" height="22" rx="3" fill="#161b22"/>
<rect x="434" y="140" width="22" height="22" rx="3" fill="#161b22"/>
<rect x="460" y="140" width="22" height="22" rx="3" fill="#161b22"/>
<rect x="486" y="140" width="22" height="22" rx="3" fill="#161b22"/>
<rect x="512" y="140" width="22" height="22" rx="3" fill="#006d32"/>
<text x="523" y="155" font-size="9" text-anchor="middle" fill="#c9d1d9" font-weight="500">6</text>
<rect x="538" y="140" width="22" height="22" rx="3" fill="#161b22"/>
<rect x="564" y="140" width="22" height="22" rx="3" fill="#161b22"/>
<rect x="590" y="140" width="22" height="22" rx="3" fill="#161b22"/>
<rect x="616" y="140" width="22" height="22" rx="3" fill="#161b22"/>
<rect x="642" y="140" width="22" height="22" rx="3" fill="#161b22"/>
<rect x="44" y="166" width="22" height="22" rx="3" fill="#161b22"/>
<rect x="70" y="166" width="22" height="22" rx="3" fill="#39d353"/>
<text x="81" y="181" font-size="9" text-anchor="middle" fill="#ffffff" font-weight="500">23</text>
<rect x="96" y="166" width="22" height="22" rx="3" fill="#161b22"/>
<rect x="122" y="166" width="22" height="22" rx="3" fill="#161b22"/>
<rect x="148" y="166" width="22" height="22" rx="3" fill="#161b22"/>
<rect x="174" y="166" width="22" height="22" rx="3" fill="#161b22"/>
<rect x="200" y="166" width="22" height="22" rx="3" fill="#161b22"/>
<rect x="226" y="166" width="22" height="22" rx="3" fill="#161b22"/>
<rect x="252" y="166" width="22" height="22" rx="3" fill="#0e4429"/>
<text x="263" y="181" font-size="9" text-anchor="middle" fill="#58a6ff" font-weight="500">5</text>
<rect x="278" y="166" width="22" height="22" rx="3" fill="#26a641"/>
<text x="289" y="181" font-size="9" text-anchor="middle" fill="#ffffff" font-weight="500">15</text>
<rect x="304" y="166" width="22" height="22" rx="3" fill="#161b22"/>
<rect x="330" y="166" width="22" height="22" rx="3" fill="#161b22"/>
<rect x="356" y="166" width="22" height="22" rx="3" fill="#161b22"/>
<rect x="382" y="166" width="22" height="22" rx="3" fill="#161b22"/>
<rect x="408" y="166" width="22" height="22" rx="3" fill="#161b22"/>
<rect x="434" y="166" width="22" height="22" rx="3" fill="#161b22"/>
<rect x="460" y="166" width="22" height="22" rx="3" fill="#161b22"/>
<rect x="486" y="166" width="22" height="22" rx="3" fill="#161b22"/>
<rect x="512" y="166" width="22" height="22" rx="3" fill="#161b22"/>
<rect x="538" y="166" width="22" height="22" rx="3" fill="#161b22"/>
<rect x="564" y="166" width="22" height="22" rx="3" fill="#161b22"/>
<rect x="590" y="166" width="22" height="22" rx="3" fill="#161b22"/>
<rect x="616" y="166" width="22" height="22" rx="3" fill="#161b22"/>
<rect x="642" y="166" width="22" height="22" rx="3" fill="#161b22"/>
<rect x="44" y="192" width="22" height="22" rx="3" fill="#161b22"/>
<rect x="70" y="192" width="22" height="22" rx="3" fill="#161b22"/>
<rect x="96" y="192" width="22" height="22" rx="3" fill="#161b22"/>
<rect x="122" y="192" width="22" height="22" rx="3" fill="#161b22"/>
<rect x="148" y="192" width="22" height="22" rx="3" fill="#161b22"/>
<rect x="174" y="192" width="22" height="22" rx="3" fill="#161b22"/>
<rect x="200" y="192" width="22" height="22" rx="3" fill="#161b22"/>
<rect x="226" y="192" width="22" height="22" rx="3" fill="#161b22"/>
<rect x="252" y="192" width="22" height="22" rx="3" fill="#161b22"/>
<rect x="278" y="192" width="22" height="22" rx="3" fill="#161b22"/>
<rect x="304" y="192" width="22" height="22" rx="3" fill="#161b22"/>
<rect x="330" y="192" width="22" height="22" rx="3" fill="#161b22"/>
<rect x="356" y="192" width="22" height="22" rx="3" fill="#161b22"/>
<rect x="382" y="192" width="22" height="22" rx="3" fill="#161b22"/>
<rect x="408" y="192" width="22" height="22" rx="3" fill="#161b22"/>
<rect x="434" y="192" width="22" height="22" rx="3" fill="#0e4429"/>
<text x="445" y="207" font-size="9" text-anchor="middle" fill="#58a6ff" font-weight="500">1</text>
<rect x="460" y="192" width="22" height="22" rx="3" fill="#161b22"/>
<rect x="486" y="192" width="22" height="22" rx="3" fill="#161b22"/>
<rect x="512" y="192" width="22" height="22" rx="3" fill="#161b22"/>
<rect x="538" y="192" width="22" height="22" rx="3" fill="#161b22"/>
<rect x="564" y="192" width="22" height="22" rx="3" fill="#161b22"/>
<rect x="590" y="192" width="22" height="22" rx="3" fill="#0e4429"/>
<text x="601" y="207" font-size="9" text-anchor="middle" fill="#58a6ff" font-weight="500">3</text>
<rect x="616" y="192" width="22" height="22" rx="3" fill="#161b22"/>
<rect x="642" y="192" width="22" height="22" rx="3" fill="#161b22"/>
<text x="606" y="244" font-size="10" fill="#6e7681">Less</text>
<rect x="636" y="234" width="11" height="11" rx="2" fill="#161b22"/>
<rect x="650" y="234" width="11" height="11" rx="2" fill="#0e4429"/>
<rect x="664" y="234" width="11" height="11" rx="2" fill="#006d32"/>
<rect x="678" y="234" width="11" height="11" rx="2" fill="#26a641"/>
<rect x="692" y="234" width="11" height="11" rx="2" fill="#39d353"/>
<text x="708" y="244" font-size="10" fill="#6e7681">More</text>
</svg>